<svg width="111" height="24" viewBox="0 0 111 24" fill="none" xmlns="http://www.w3.org/2000/svg">
<path fill-rule="evenodd" clip-rule="evenodd" d="M18.2256 0C21.4726 0 24.1049 2.62084 24.1049 5.85371V18.1463C24.1049 21.3792 21.4726 24 18.2256 24H5.87931C2.6323 24 0 21.3792 0 18.1463V5.85371C0 2.62084 2.6323 0 5.87931 0H18.2256ZM15.6639 14.4422L18.8164 19.4273C19.08 19.8439 19.6844 19.8597 19.9693 19.4572L20.9983 18.0029C21.16 17.7744 21.1671 17.4715 21.0166 17.2356L17.4118 11.5888L15.6639 14.4422ZM3.28069 17.2561C3.13863 17.4816 3.13958 17.7686 3.28313 17.9932L4.17448 19.3878C4.44698 19.814 5.07214 19.8137 5.34417 19.3871L8.48806 14.4571L6.78976 11.6848L3.28069 17.2561ZM12.6787 12.6796C12.4052 12.2589 11.7867 12.2597 11.5142 12.681L10.631 14.0472C10.4905 14.2645 10.4838 14.5418 10.6136 14.7656L11.4902 16.2777C11.7552 16.7346 12.4163 16.7384 12.6865 16.2846L13.5843 14.7772C13.7184 14.5518 13.7129 14.2702 13.5699 14.0503L12.6787 12.6796ZM12.6844 4.18329C12.4112 3.7553 11.7832 3.75722 11.5126 4.18687L7.76388 10.1383L9.50951 12.8551L11.5082 9.72103C11.781 9.29322 12.4085 9.29447 12.6797 9.7233L14.6468 12.834L16.4325 10.0546L12.6844 4.18329Z" fill="white"/>
<path d="M33.9255 19.2498C33.1141 19.2498 32.3941 19.0951 31.7656 18.7856C31.1372 18.4762 30.6439 18.0399 30.2859 17.4766C29.9279 16.9054 29.7489 16.231 29.7489 15.4535C29.7489 14.7871 29.916 14.192 30.2501 13.6684C30.5843 13.1448 31.0974 12.7124 31.7895 12.3713C32.4816 12.0222 33.3647 11.7882 34.4387 11.6692C35.3973 11.5637 36.5121 11.5642 37.783 11.6705C38.0678 11.6943 38.2862 11.9305 38.293 12.2154L38.3128 13.0515C38.3212 13.4039 38.0077 13.6772 37.6568 13.6345C36.962 13.5498 36.3388 13.5135 35.7871 13.5256C35.0632 13.5415 34.4625 13.6248 33.9852 13.7755C33.5158 13.9263 33.1618 14.1325 32.9232 14.3944C32.6924 14.6562 32.5771 14.9616 32.5771 15.3107C32.5771 15.8343 32.768 16.2389 33.1499 16.5245C33.5317 16.8022 34.0528 16.9411 34.7131 16.9411C35.278 16.9411 35.7831 16.8379 36.2286 16.6316C36.6821 16.4254 37.0401 16.1358 37.3026 15.7629C37.5651 15.3821 37.6964 14.9338 37.6964 14.4182V11.4073C37.6964 10.9075 37.589 10.4751 37.3742 10.1102C37.1674 9.73732 36.8492 9.45171 36.4196 9.25337C35.99 9.04709 35.4371 8.94395 34.7609 8.94395C34.1403 8.94395 33.5238 9.03916 32.9112 9.22957C32.5381 9.34218 32.1786 9.49408 31.8327 9.68526C31.5046 9.8666 31.0739 9.74012 30.9415 9.39011L30.5409 8.33043C30.4476 8.08362 30.5367 7.80337 30.7646 7.66946C31.4048 7.29319 32.0726 7.0159 32.768 6.83758C33.6033 6.62337 34.4108 6.51626 35.1904 6.51626C36.3042 6.51626 37.2668 6.6908 38.0783 7.03988C38.8977 7.38896 39.5262 7.92448 39.9637 8.64644C40.4092 9.36047 40.632 10.2689 40.632 11.3716V18.3271C40.632 18.6395 40.378 18.8927 40.0648 18.8927H38.2682C38.0842 18.8927 37.9351 18.744 37.9351 18.5606C37.9351 18.2386 37.4766 18.071 37.2212 18.268C36.9477 18.4789 36.6367 18.6594 36.2883 18.8094C35.5882 19.103 34.8006 19.2498 33.9255 19.2498Z" fill="white"/>
<path d="M43.2729 18.8927C42.9596 18.8927 42.7057 18.6395 42.7057 18.3271V7.55793C42.7057 7.24553 42.9596 6.99228 43.2729 6.99228H45.3999C45.5991 6.99228 45.7606 7.15333 45.7606 7.35199C45.7606 7.69658 46.2295 7.86631 46.4947 7.6453C46.7849 7.40333 47.0971 7.20946 47.4312 7.06369C48.0756 6.77807 48.7478 6.63527 49.4479 6.63527C50.5457 6.63527 51.4527 6.85344 52.1687 7.28979C52.8926 7.72614 53.4296 8.28546 53.7796 8.96776C54.1297 9.65005 54.3047 10.3641 54.3047 11.1098V18.3271C54.3047 18.6395 54.0507 18.8927 53.7375 18.8927H51.817C51.5037 18.8927 51.2498 18.6395 51.2498 18.3271V12.0619C51.2498 11.2526 51.0151 10.61 50.5457 10.134C50.0764 9.65798 49.4201 9.41997 48.5768 9.41997C48.0279 9.41997 47.5386 9.54294 47.109 9.78889C46.6874 10.0269 46.3572 10.3641 46.1186 10.8004C45.8799 11.2368 45.7606 11.7406 45.7606 12.3118V18.3271C45.7606 18.6395 45.5066 18.8927 45.1934 18.8927H43.2729Z" fill="white"/>
<path d="M62.5244 19.2498C61.2515 19.2498 60.1218 18.9641 59.1354 18.3929C58.1568 17.8138 57.3891 17.0482 56.8323 16.0961C56.2754 15.1362 55.9969 14.0849 55.9969 12.9425C55.9969 12.1015 56.1561 11.3002 56.4743 10.5386C56.7925 9.77699 57.242 9.10659 57.8227 8.52744C58.4114 7.94035 59.1035 7.4802 59.8991 7.14699C60.6946 6.80584 61.5697 6.63527 62.5244 6.63527C63.7893 6.63527 64.911 6.92088 65.8895 7.4921C66.876 8.06332 67.6477 8.82892 68.2045 9.78889C68.7694 10.7489 69.0518 11.8001 69.0518 12.9425C69.0518 13.7835 68.8887 14.5848 68.5625 15.3464C68.2443 16.1001 67.7948 16.7705 67.2141 17.3576C66.6333 17.9447 65.9452 18.4088 65.1497 18.7499C64.3541 19.0832 63.479 19.2498 62.5244 19.2498ZM62.5124 16.584C63.1886 16.584 63.7893 16.4373 64.3143 16.1437C64.8474 15.8422 65.265 15.4218 65.5673 14.8823C65.8696 14.3349 66.0208 13.6883 66.0208 12.9425C66.0208 12.1967 65.8696 11.5502 65.5673 11.0027C65.265 10.4553 64.8513 10.0348 64.3263 9.74128C63.8012 9.44774 63.2006 9.30097 62.5244 9.30097C61.8482 9.30097 61.2435 9.44774 60.7105 9.74128C60.1855 10.0348 59.7718 10.4553 59.4695 11.0027C59.1751 11.5502 59.028 12.1967 59.028 12.9425C59.028 13.6883 59.1791 14.3349 59.4814 14.8823C59.7837 15.4218 60.1974 15.8422 60.7225 16.1437C61.2475 16.4373 61.8442 16.584 62.5124 16.584Z" fill="white"/>
<path d="M76.754 19.2498C75.5925 19.2498 74.5622 18.98 73.6633 18.4405C72.7643 17.901 72.0603 17.1553 71.5511 16.2032C71.042 15.2512 70.7874 14.1643 70.7874 12.9425C70.7874 12.0619 70.9306 11.2407 71.217 10.4791C71.5113 9.70955 71.925 9.03916 72.458 8.46794C72.999 7.88878 73.6354 7.44053 74.3673 7.12319C75.0992 6.79791 75.9107 6.63527 76.8017 6.63527C77.8279 6.63527 78.7269 6.84154 79.4986 7.25409C80.202 7.62293 80.8096 8.13352 81.3214 8.78586C81.4081 8.89637 81.3964 9.05316 81.2986 9.15411C81.1172 9.34151 80.7993 9.21342 80.7993 8.95294V2.20487C80.7993 1.89247 81.0532 1.63922 81.3665 1.63922H83.287C83.6002 1.63922 83.8542 1.89247 83.8542 2.20487V18.3271C83.8542 18.6395 83.6002 18.8927 83.287 18.8927H81.7245C81.4112 18.8927 81.1573 18.6395 81.1573 18.3271V16.6508C81.1573 16.4507 81.4203 16.3759 81.5261 16.5459C81.5637 16.6063 81.5664 16.6823 81.5311 16.7441C81.1265 17.4528 80.5405 18.0421 79.773 18.5119C78.9695 19.0038 77.9632 19.2498 76.754 19.2498ZM77.3148 16.584C77.9831 16.584 78.5797 16.4373 79.1048 16.1437C79.6378 15.8422 80.0555 15.4218 80.3578 14.8823C80.6601 14.3349 80.8112 13.6883 80.8112 12.9425C80.8112 12.1967 80.6601 11.5502 80.3578 11.0027C80.0555 10.4553 79.6418 10.0348 79.1167 9.74128C78.5917 9.44774 77.991 9.30097 77.3148 9.30097C76.6386 9.30097 76.034 9.44774 75.501 9.74128C74.9759 10.0348 74.5622 10.4553 74.2599 11.0027C73.9656 11.5502 73.8184 12.1967 73.8184 12.9425C73.8184 13.6883 73.9696 14.3349 74.2719 14.8823C74.5742 15.4218 74.9879 15.8422 75.5129 16.1437C76.038 16.4373 76.6386 16.584 77.3148 16.584Z" fill="white"/>
<path d="M92.0736 19.2498C90.8007 19.2498 89.671 18.9641 88.6845 18.3929C87.706 17.8138 86.9383 17.0482 86.3815 16.0961C85.8246 15.1362 85.5461 14.0849 85.5461 12.9425C85.5461 12.1015 85.7052 11.3002 86.0235 10.5386C86.3417 9.77699 86.7912 9.10659 87.3719 8.52744C87.9606 7.94035 88.6527 7.4802 89.4483 7.14699C90.2438 6.80584 91.1189 6.63527 92.0736 6.63527C93.3385 6.63527 94.4602 6.92088 95.4387 7.4921C96.4252 8.06332 97.1968 8.82892 97.7537 9.78889C98.3186 10.7489 98.601 11.8001 98.601 12.9425C98.601 13.7835 98.4379 14.5848 98.1117 15.3464C97.7935 16.1001 97.344 16.7705 96.7633 17.3576C96.1825 17.9447 95.4944 18.4088 94.6988 18.7499C93.9033 19.0832 93.0282 19.2498 92.0736 19.2498ZM92.0616 16.584C92.7378 16.584 93.3385 16.4373 93.8635 16.1437C94.3965 15.8422 94.8142 15.4218 95.1165 14.8823C95.4188 14.3349 95.57 13.6883 95.57 12.9425C95.57 12.1967 95.4188 11.5502 95.1165 11.0027C94.8142 10.4553 94.4005 10.0348 93.8755 9.74128C93.3504 9.44774 92.7498 9.30097 92.0736 9.30097C91.3973 9.30097 90.7927 9.44774 90.2597 9.74128C89.7347 10.0348 89.321 10.4553 89.0187 11.0027C88.7243 11.5502 88.5771 12.1967 88.5771 12.9425C88.5771 13.6883 88.7283 14.3349 89.0306 14.8823C89.3329 15.4218 89.7466 15.8422 90.2717 16.1437C90.7967 16.4373 91.3934 16.584 92.0616 16.584Z" fill="white"/>
<path d="M100.081 10.4063C100.081 9.87975 100.189 9.3857 100.405 8.92419C100.621 8.46268 100.913 8.06034 101.281 7.71717C101.655 7.36808 102.09 7.09295 102.585 6.89178C103.08 6.69061 103.61 6.59002 104.175 6.59002H109.746C110.128 6.59002 110.438 6.86887 110.438 7.21284V8.51438C110.438 8.85835 110.128 9.1372 109.746 9.1372H104.175C103.984 9.1372 103.807 9.16974 103.642 9.23482C103.477 9.29991 103.331 9.39162 103.204 9.50995C103.083 9.62237 102.988 9.7555 102.918 9.90934C102.848 10.0632 102.813 10.2288 102.813 10.4063C102.813 10.5838 102.848 10.7525 102.918 10.9122C102.988 11.0661 103.083 11.2022 103.204 11.3205C103.331 11.4329 103.477 11.5217 103.642 11.5867C103.807 11.6518 103.984 11.6844 104.175 11.6844H106.907C107.472 11.6844 108.001 11.785 108.496 11.9861C108.998 12.1814 109.433 12.4536 109.801 12.8026C110.175 13.1458 110.467 13.5511 110.676 14.0185C110.892 14.48 111 14.9741 111 15.5007C111 16.0273 110.892 16.5214 110.676 16.9829C110.467 17.4444 110.175 17.8497 109.801 18.1988C109.433 18.5419 108.998 18.8141 108.496 19.0153C108.001 19.2164 107.472 19.317 106.907 19.317H101.536C101.153 19.317 100.843 19.0382 100.843 18.6942V17.3927C100.843 17.0487 101.153 16.7699 101.536 16.7699H106.907C107.097 16.7699 107.275 16.7373 107.44 16.6722C107.605 16.6071 107.748 16.5184 107.868 16.406C107.995 16.2876 108.093 16.1515 108.163 15.9977C108.233 15.8439 108.268 15.6782 108.268 15.5007C108.268 15.3232 108.233 15.1575 108.163 15.0037C108.093 14.8498 107.995 14.7167 107.868 14.6043C107.748 14.486 107.605 14.3943 107.44 14.3292C107.275 14.2641 107.097 14.2315 106.907 14.2315H104.175C103.61 14.2315 103.08 14.131 102.585 13.9298C102.09 13.7286 101.655 13.4564 101.281 13.1133C100.913 12.7642 100.621 12.3589 100.405 11.8974C100.189 11.4299 100.081 10.9329 100.081 10.4063Z" fill="white"/>
</svg>
