<svg width="190" height="40" viewBox="0 0 190 40" fill="none" xmlns="http://www.w3.org/2000/svg">
<g clip-path="url(#clip0_8637_94832)">
<path d="M43.2557 16.4929H39.8786V6.45244C39.8786 2.8945 36.9929 0 33.4457 0H6.43286C2.88571 0 0 2.8945 0 6.45244V33.549C0 37.1069 2.88571 40.0014 6.43286 40.0014H43.2571C46.8043 40.0014 49.69 37.1069 49.69 33.549V22.9468C49.69 19.3889 46.8043 16.4944 43.2571 16.4944L43.2557 16.4929ZM35.5929 33.1664C35.5929 34.5664 34.4614 35.7012 33.0657 35.7012C31.67 35.7012 30.5386 34.5664 30.5386 33.1664V22.9454C30.5386 21.756 31.5 20.7917 32.6857 20.7917H35.5929V33.1664ZM35.5929 16.4929H32.6857C29.1386 16.4929 26.2529 19.3874 26.2529 22.9454V33.5476C26.2529 34.3027 26.3843 35.0263 26.6229 35.7012H6.43286C5.24857 35.7012 4.28571 34.7354 4.28571 33.5476V6.45244C4.28571 5.26455 5.24857 4.29876 6.43286 4.29876H33.4471C34.6314 4.29876 35.5943 5.26455 35.5943 6.45244V16.4929H35.5929ZM45.4029 33.5476C45.4029 34.7354 44.44 35.7012 43.2557 35.7012H39.5086C39.7471 35.0278 39.8786 34.3027 39.8786 33.5476V20.7917H43.2557C44.44 20.7917 45.4029 21.7575 45.4029 22.9454V33.5476Z" fill="white"/>
<path d="M75.7814 15.5052H74.0142C72.4757 15.5052 71.3871 15.9809 70.7485 16.9338V11.3927C70.7485 10.8998 70.5028 10.6533 70.0114 10.6533H67.3599C66.8685 10.6533 66.6228 10.8998 66.6228 11.3927V28.605C66.6228 29.0979 66.8685 29.3443 67.3599 29.3443H70.0114C70.5028 29.3443 70.7485 29.0979 70.7485 28.605V27.9157C71.3871 28.8686 72.4757 29.3443 74.0142 29.3443H75.7814C77.5985 29.3443 78.8985 28.8801 79.6842 27.953C80.4699 27.0259 80.8628 25.6918 80.8628 23.9508V20.9718C80.8628 19.1821 80.4699 17.8237 79.6842 16.8966C78.8985 15.9695 77.5971 15.5052 75.7814 15.5052ZM76.7385 24.3449C76.7385 24.7877 76.6599 25.0914 76.5057 25.2562C76.3499 25.421 76.0757 25.5027 75.6828 25.5027H71.8042C71.4114 25.5027 71.1371 25.421 70.9814 25.2562C70.8257 25.0929 70.7485 24.7877 70.7485 24.3449V20.5032C70.7485 20.0605 70.8299 19.7567 70.9942 19.5919C71.1571 19.4285 71.4271 19.3454 71.8042 19.3454H75.6828C76.0585 19.3454 76.3285 19.4271 76.4928 19.5919C76.6557 19.7567 76.7385 20.0605 76.7385 20.5032V24.3449Z" fill="white"/>
<path d="M84.1029 15.5056H86.7543C87.1614 15.5056 87.4914 15.8366 87.4914 16.245V28.6068C87.4914 29.0152 87.1614 29.3462 86.7543 29.3462H84.1029C83.6957 29.3462 83.3657 29.0152 83.3657 28.6068V16.245C83.3657 15.8366 83.6957 15.5056 84.1029 15.5056Z" fill="white"/>
<path d="M88.2271 10.6394H90.8786C91.2857 10.6394 91.6157 10.9704 91.6157 11.3788V13.8033C91.6157 14.2117 91.2857 14.5427 90.8786 14.5427H88.2271C87.82 14.5427 87.49 14.2117 87.49 13.8033V11.3788C87.49 10.9704 87.82 10.6394 88.2271 10.6394Z" fill="white"/>
<path d="M103.497 10.6548H100.846C100.354 10.6548 100.108 10.9012 100.108 11.3941V16.9352C99.4699 15.9838 98.3813 15.5066 96.8427 15.5066H95.0756C93.2584 15.5066 91.9584 15.9709 91.1727 16.898C90.387 17.8251 89.9941 19.1835 89.9941 20.9732V23.9523C89.9941 25.6918 90.387 27.0259 91.1727 27.9544C91.9584 28.8815 93.2599 29.3458 95.0756 29.3458H96.8427C98.3813 29.3458 99.4699 28.87 100.108 27.9172V28.6308C100.108 29.1065 100.354 29.3443 100.846 29.3443H103.497C103.988 29.3443 104.234 29.0979 104.234 28.605V11.3927C104.234 10.8998 103.988 10.6533 103.497 10.6533V10.6548ZM100.11 24.3463C100.11 24.7891 100.031 25.0929 99.877 25.2577C99.7213 25.4224 99.447 25.5041 99.0541 25.5041H95.1756C94.7827 25.5041 94.5084 25.4224 94.3527 25.2577C94.197 25.0943 94.1199 24.7891 94.1199 24.3463V20.5047C94.1199 20.0619 94.2013 19.7581 94.3656 19.5933C94.5284 19.43 94.7984 19.3469 95.1756 19.3469H99.0541C99.4299 19.3469 99.6998 19.4285 99.8641 19.5933C100.027 19.7581 100.11 20.0619 100.11 20.5047V24.3463Z" fill="white"/>
<path d="M120.24 10.6548H117.589C117.097 10.6548 116.852 10.9012 116.852 11.3941V16.9352C116.213 15.9838 115.124 15.5066 113.586 15.5066H111.819C110.002 15.5066 108.702 15.9709 107.916 16.898C107.13 17.8251 106.737 19.1835 106.737 20.9732V23.9523C106.737 25.6918 107.13 27.0259 107.916 27.9544C108.702 28.8815 110.003 29.3458 111.819 29.3458H113.586C115.124 29.3458 116.213 28.87 116.852 27.9172V28.6308C116.852 29.1065 117.097 29.3443 117.589 29.3443H120.24C120.732 29.3443 120.977 29.0979 120.977 28.605V11.3927C120.977 10.8998 120.732 10.6533 120.24 10.6533V10.6548ZM116.853 24.3463C116.853 24.7891 116.774 25.0929 116.62 25.2577C116.464 25.4224 116.19 25.5041 115.797 25.5041H111.919C111.526 25.5041 111.252 25.4224 111.096 25.2577C110.94 25.0943 110.863 24.7891 110.863 24.3463V20.5047C110.863 20.0619 110.944 19.7581 111.109 19.5933C111.272 19.43 111.542 19.3469 111.919 19.3469H115.797C116.173 19.3469 116.443 19.4285 116.607 19.5933C116.77 19.7581 116.853 20.0619 116.853 20.5047V24.3463Z" fill="white"/>
<path d="M135.03 22.4006C134.383 21.7443 133.241 21.3173 131.606 21.1195L128.243 20.7011C127.719 20.6524 127.457 20.4217 127.457 20.0119C127.457 19.5691 127.769 19.347 128.39 19.347H134.65C135.141 19.347 135.387 19.1005 135.387 18.6076V16.2433C135.387 15.7504 135.141 15.5039 134.65 15.5039H128.291C126.639 15.5039 125.403 15.832 124.584 16.4883C123.766 17.1446 123.357 18.1706 123.357 19.5662C123.357 20.9619 123.66 21.9019 124.266 22.5338C124.871 23.1657 125.927 23.5727 127.433 23.7532L130.894 24.1716C131.239 24.2046 131.479 24.2705 131.619 24.368C131.757 24.4668 131.827 24.6302 131.827 24.8609C131.827 25.2879 131.509 25.5014 130.87 25.5014H124.389C123.897 25.5014 123.651 25.7479 123.651 26.2408V28.6051C123.651 29.098 123.897 29.3445 124.389 29.3445H130.846C132.63 29.3445 133.934 29.0364 134.761 28.4217C135.589 27.8055 136.001 26.7839 136.001 25.3552C136.001 24.0427 135.679 23.0568 135.031 22.4006H135.03Z" fill="white"/>
</g>
<path d="M152.722 18.884C154.21 18.884 155.2 19.184 155.692 19.784C156.196 20.384 156.448 21.416 156.448 22.88V25.058C156.448 25.778 156.4 26.366 156.304 26.822C156.208 27.278 156.022 27.68 155.746 28.028C155.482 28.376 155.104 28.628 154.612 28.784C154.12 28.928 153.49 29 152.722 29H150.202C149.278 29 148.582 28.88 148.114 28.64C147.646 28.4 147.322 28.022 147.142 27.506V28.73C147.142 28.91 147.052 29 146.872 29H146.296C146.116 29 146.026 28.91 146.026 28.73V15.608C146.026 15.428 146.116 15.338 146.296 15.338H146.872C147.052 15.338 147.142 15.428 147.142 15.608V20.378C147.322 19.85 147.646 19.472 148.114 19.244C148.582 19.004 149.278 18.884 150.202 18.884H152.722ZM155.332 25.112V22.826C155.332 21.638 155.164 20.864 154.828 20.504C154.504 20.144 153.802 19.964 152.722 19.964H149.77C149.278 19.964 148.882 20 148.582 20.072C148.282 20.132 148.012 20.264 147.772 20.468C147.544 20.66 147.382 20.948 147.286 21.332C147.19 21.716 147.142 22.214 147.142 22.826V25.112C147.142 26.252 147.334 27.008 147.718 27.38C148.114 27.74 148.798 27.92 149.77 27.92H152.722C153.79 27.92 154.492 27.74 154.828 27.38C155.164 27.02 155.332 26.264 155.332 25.112ZM162.288 29C160.8 29 159.804 28.7 159.3 28.1C158.808 27.5 158.562 26.468 158.562 25.004V22.826C158.562 22.106 158.61 21.518 158.706 21.062C158.802 20.606 158.982 20.204 159.246 19.856C159.522 19.508 159.906 19.262 160.398 19.118C160.89 18.962 161.52 18.884 162.288 18.884H164.826C165.594 18.884 166.224 18.962 166.716 19.118C167.208 19.262 167.586 19.508 167.85 19.856C168.126 20.204 168.312 20.606 168.408 21.062C168.504 21.518 168.552 22.106 168.552 22.826V24.338C168.552 24.518 168.462 24.608 168.282 24.608H159.678V25.058C159.678 26.246 159.84 27.02 160.164 27.38C160.5 27.74 161.214 27.92 162.306 27.92H167.472C167.652 27.92 167.742 28.01 167.742 28.19V28.73C167.742 28.91 167.652 29 167.472 29H162.288ZM159.678 23.564H167.436V22.772C167.436 21.62 167.268 20.864 166.932 20.504C166.596 20.144 165.888 19.964 164.808 19.964H162.306C161.226 19.964 160.518 20.144 160.182 20.504C159.846 20.864 159.678 21.62 159.678 22.772V23.564ZM175.301 29C173.753 29 172.697 28.7 172.133 28.1C171.581 27.5 171.305 26.528 171.305 25.184V19.946H169.865C169.685 19.946 169.595 19.856 169.595 19.676V19.154C169.595 18.974 169.685 18.884 169.865 18.884C170.333 18.884 170.663 18.872 170.855 18.848C171.047 18.824 171.209 18.722 171.341 18.542C171.485 18.362 171.563 18.146 171.575 17.894C171.599 17.63 171.611 17.192 171.611 16.58C171.611 16.388 171.701 16.292 171.881 16.292H172.133C172.313 16.292 172.403 16.382 172.403 16.562V18.884H176.975C177.155 18.884 177.245 18.974 177.245 19.154V19.676C177.245 19.856 177.155 19.946 176.975 19.946H172.403V25.238C172.403 26.282 172.601 26.996 172.997 27.38C173.405 27.752 174.173 27.938 175.301 27.938H176.975C177.155 27.938 177.245 28.028 177.245 28.208V28.73C177.245 28.91 177.155 29 176.975 29H175.301ZM182.037 29C179.517 29 178.257 28.088 178.257 26.264C178.257 25.316 178.491 24.62 178.959 24.176C179.439 23.72 180.279 23.426 181.479 23.294L186.519 22.736C186.903 22.688 187.095 22.484 187.095 22.124C187.095 21.284 186.939 20.714 186.627 20.414C186.327 20.114 185.691 19.964 184.719 19.964H179.337C179.157 19.964 179.067 19.874 179.067 19.694V19.154C179.067 18.974 179.157 18.884 179.337 18.884H184.737C186.009 18.884 186.903 19.118 187.419 19.586C187.947 20.054 188.211 20.81 188.211 21.854V28.73C188.211 28.91 188.121 29 187.941 29H187.365C187.185 29 187.095 28.91 187.095 28.73V27.218C186.879 27.854 186.537 28.31 186.069 28.586C185.601 28.862 184.845 29 183.801 29H182.037ZM182.037 27.938H184.071C185.199 27.938 185.985 27.716 186.429 27.272C186.873 26.816 187.095 26.03 187.095 24.914V23.708L181.623 24.32C180.723 24.416 180.123 24.602 179.823 24.878C179.523 25.142 179.373 25.586 179.373 26.21C179.373 27.362 180.261 27.938 182.037 27.938Z" fill="white"/>
<defs>
<clipPath id="clip0_8637_94832">
<rect width="136" height="40" fill="white"/>
</clipPath>
</defs>
</svg>
