<svg xmlns="http://www.w3.org/2000/svg" width="1024" height="1024" viewBox="0 0 1024 1024">
<g>
<path d="M 184.57 610.01 C188.61,618.25 191.72,625.00 191.49,625.00 C189.38,625.00 171.16,595.68 164.80,582.07 C155.12,561.34 151.62,546.89 151.72,528.00 C151.82,508.90 154.92,496.62 166.98,467.63 C181.49,432.73 183.35,423.17 182.42,388.00 C181.98,371.13 182.14,361.47 182.93,357.00 C186.29,338.14 193.72,320.33 203.79,307.00 C206.90,302.88 217.35,291.40 227.01,281.50 C236.67,271.60 247.09,260.58 250.17,257.00 C261.64,243.67 274.35,224.30 283.58,206.08 C286.53,200.26 288.96,196.24 288.97,197.14 C289.03,200.73 280.47,223.24 274.38,235.50 C264.93,254.53 254.74,268.22 229.67,295.59 C211.80,315.10 205.81,324.45 200.04,341.78 C195.52,355.38 194.61,364.49 195.34,388.99 C196.29,421.06 193.79,435.53 182.97,460.52 C180.24,466.83 175.79,477.10 173.09,483.33 C161.73,509.57 158.69,530.03 162.92,551.84 C166.42,569.91 171.15,582.60 184.57,610.01 ZM 408.93 804.25 C409.06,805.57 407.69,805.04 398.50,800.21 C382.34,791.73 367.08,780.19 354.77,767.14 C343.62,755.32 335.19,743.04 320.70,717.50 C308.74,696.44 306.38,692.86 291.79,673.77 C277.44,654.99 271.70,645.58 266.20,631.78 C258.69,612.92 255.82,597.50 254.04,566.50 C252.67,542.47 252.15,537.35 249.81,525.00 C247.79,514.30 242.94,497.79 240.31,492.66 C237.46,487.09 239.83,489.02 244.04,495.69 C256.46,515.35 260.52,530.07 265.97,575.27 C269.56,605.01 272.82,616.91 282.65,636.09 C286.38,643.37 292.47,653.08 297.06,659.09 C316.77,684.88 319.20,688.75 340.42,728.00 C354.98,754.94 372.03,774.88 397.27,794.50 C403.64,799.45 408.89,803.84 408.93,804.25 ZM 779.02 649.35 C776.71,653.56 774.61,657.00 774.36,657.00 C773.66,657.00 775.06,650.20 777.24,643.00 C781.25,629.74 790.16,614.80 803.36,599.17 C807.29,594.52 813.58,587.06 817.35,582.61 C835.62,560.98 844.16,541.71 849.56,510.00 C854.62,480.26 858.76,468.11 876.29,431.50 C887.39,408.32 895.42,388.23 897.99,377.20 C899.88,369.10 900.40,371.79 899.05,382.71 C896.62,402.55 892.73,416.61 883.44,439.15 C870.50,470.53 867.44,480.72 862.99,507.12 C858.47,533.86 855.95,542.53 848.02,558.50 C840.16,574.36 834.48,581.90 814.54,603.00 C795.08,623.59 788.29,632.45 779.02,649.35 ZM 747.47 547.50 C742.05,555.75 733.20,570.60 727.81,580.50 C722.42,590.40 718.01,597.57 718.00,596.42 C718.00,592.67 724.14,573.72 729.17,562.00 C731.88,555.68 739.70,540.54 746.55,528.37 C765.52,494.63 767.96,487.73 767.99,467.88 C768.00,459.10 767.26,452.36 765.00,440.38 C760.20,415.03 759.54,404.57 760.87,374.62 C761.51,360.25 762.07,343.33 762.11,337.00 C762.19,327.55 762.37,326.21 763.14,329.50 C765.26,338.59 767.16,354.77 768.54,375.50 C770.53,405.54 771.48,412.82 776.01,432.50 C784.24,468.23 783.55,483.45 772.69,506.35 C768.37,515.45 766.30,518.84 747.47,547.50 ZM 833.11 415.00 C831.26,428.48 829.41,439.88 828.98,440.34 C827.80,441.64 827.31,433.49 827.11,409.10 C826.71,359.04 824.38,347.70 806.76,310.00 C794.06,282.84 788.32,268.49 780.56,244.50 C776.22,231.08 769.03,216.54 762.39,207.75 C756.94,200.52 760.32,202.07 768.94,210.75 C779.10,220.98 784.37,230.02 798.85,262.05 C805.43,276.60 814.57,296.15 819.18,305.50 C833.14,333.85 836.38,346.42 836.43,372.50 C836.46,387.53 835.91,394.54 833.11,415.00 Z" fill="rgb(49,123,119)"/>
<path d="M 610.76 953.33 C596.44,964.02 548.53,935.54 521.89,900.50 C501.94,874.25 489.04,840.91 479.97,792.14 L 476.93 775.77 L 466.31 765.64 C440.08,740.60 419.77,710.33 401.49,669.00 C399.42,664.33 397.58,660.33 397.40,660.12 C397.22,659.91 394.47,662.12 391.28,665.03 C371.95,682.74 359.35,685.53 350.84,674.00 C347.90,670.02 346.04,658.71 346.02,644.79 C345.98,619.86 352.35,599.13 365.23,582.26 L 369.23 577.02 L 366.14 560.76 C356.99,512.42 355.65,471.82 361.53,420.59 C362.35,413.49 362.81,407.47 362.55,407.22 C362.29,406.96 360.30,407.46 358.12,408.33 C334.67,417.72 295.25,414.99 267.66,402.08 C255.76,396.52 251.29,392.87 248.28,386.31 C243.33,375.50 246.18,366.56 260.21,348.81 C273.53,331.97 289.99,318.90 310.39,308.98 C329.16,299.86 351.47,294.16 377.96,291.73 L 391.41 290.50 L 395.67 279.58 C406.26,252.43 425.30,217.88 442.67,194.26 C445.60,190.28 448.00,185.95 448.00,184.64 C448.00,180.90 454.62,168.64 459.69,163.00 C464.05,158.15 473.00,152.03 475.77,152.01 C476.46,152.00 480.88,148.74 485.58,144.76 L 494.13 137.51 L 490.55 136.77 C482.64,135.12 474.96,129.43 472.36,123.28 C467.14,110.93 477.60,101.81 489.66,108.20 C493.79,110.39 493.90,110.39 501.16,108.69 C510.42,106.53 516.42,106.57 521.45,108.83 C525.34,110.57 525.51,110.56 531.28,108.23 C551.00,100.26 575.76,101.68 592.69,111.75 C602.52,117.60 608.21,123.01 614.58,132.57 C619.49,139.96 620.55,141.00 623.12,141.00 C628.25,141.00 633.25,143.89 639.65,150.54 C645.53,156.66 646.10,157.00 650.48,157.00 C659.29,157.00 664.00,161.30 664.00,169.35 C664.00,173.67 663.58,174.66 660.51,177.56 C653.88,183.81 641.81,184.40 631.68,178.97 C629.66,177.89 627.83,177.00 627.60,177.00 C627.38,177.00 628.02,180.17 629.01,184.05 C630.01,187.93 631.14,193.38 631.52,196.17 C631.91,198.97 633.53,204.05 635.13,207.46 C639.30,216.38 640.04,227.21 637.14,236.77 C635.63,241.73 635.00,246.48 635.00,252.85 C635.00,273.53 631.20,304.78 625.40,331.86 C623.47,340.86 622.03,348.31 622.19,348.42 C622.36,348.53 624.97,350.17 627.99,352.06 C641.85,360.74 662.87,379.89 673.50,393.50 C693.94,419.68 705.20,449.16 705.15,476.37 C705.12,491.64 701.99,498.30 692.50,503.28 C686.95,506.20 672.53,506.78 660.75,504.57 C640.56,500.79 624.23,494.43 610.67,485.05 C603.56,480.14 591.72,468.73 587.28,462.50 C585.86,460.51 584.80,459.84 584.15,460.50 C583.61,461.05 580.49,467.80 577.21,475.50 C573.94,483.20 566.21,500.75 560.04,514.50 C546.52,544.65 539.49,561.67 534.20,577.04 L 530.22 588.57 L 534.91 593.04 C540.95,598.80 547.15,607.25 551.97,616.30 C564.80,640.43 567.98,674.11 558.27,683.17 C551.03,689.92 545.37,689.71 530.01,682.09 C526.59,680.39 523.58,679.00 523.33,679.00 C522.40,679.00 524.21,690.69 526.54,699.68 C529.21,709.98 538.90,730.34 541.90,731.95 C544.52,733.35 565.74,736.62 581.00,737.97 C620.70,741.48 631.85,742.95 646.21,746.57 C662.83,750.75 678.83,757.36 690.41,764.82 C709.61,777.18 727.53,795.15 732.79,807.30 C733.46,808.84 734.00,812.48 734.00,815.40 C734.00,821.26 731.68,825.70 726.68,829.41 C723.47,831.79 718.94,831.93 690.00,830.54 L 673.50 829.75 L 654.00 834.53 C636.87,838.72 632.83,839.36 620.75,839.78 C611.51,840.10 607.01,840.62 607.04,841.38 C607.06,842.00 607.78,845.20 608.65,848.50 C609.82,852.95 610.41,862.37 610.95,885.00 L 611.68 915.50 L 614.95 926.45 C619.50,941.69 618.59,947.48 610.76,953.33 ZM 594.80 941.59 C602.78,944.41 603.37,944.46 605.06,942.43 C606.14,941.13 605.97,939.57 604.04,933.18 C599.71,918.86 599.09,913.16 598.67,883.83 C598.29,856.70 598.16,855.13 595.63,846.72 C594.18,841.89 591.16,834.29 588.91,829.83 C586.67,825.37 585.44,821.95 586.17,822.23 C586.90,822.52 591.55,823.82 596.50,825.12 C603.89,827.07 607.91,827.49 619.00,827.47 C631.70,827.45 633.63,827.16 651.62,822.70 C673.43,817.29 682.54,816.31 696.00,817.93 C717.26,820.49 719.54,820.50 721.26,818.05 C724.32,813.67 719.09,805.00 705.74,792.34 C686.91,774.49 666.07,763.93 636.98,757.50 C626.57,755.19 620.63,754.46 580.00,750.46 C560.12,748.51 544.27,745.84 537.50,743.32 C532.94,741.62 532.09,740.76 527.79,733.52 C519.53,719.63 513.27,701.03 511.07,683.89 C506.19,645.74 506.30,636.06 511.92,608.26 C516.83,584.00 525.94,558.40 544.05,518.00 C549.10,506.73 554.78,493.90 556.66,489.50 C558.54,485.10 561.23,479.02 562.65,476.00 C564.06,472.98 566.09,468.29 567.16,465.58 C568.23,462.87 569.90,458.82 570.88,456.58 C576.78,442.98 588.68,411.25 595.09,392.00 C599.60,378.48 611.00,338.70 611.00,336.49 C611.00,336.28 608.89,337.04 606.32,338.18 C596.59,342.48 585.09,340.31 575.34,332.32 C568.47,326.68 566.25,323.06 553.68,297.00 C541.99,272.74 532.29,264.09 514.78,262.31 C503.22,261.13 489.84,265.78 470.78,277.59 C451.73,289.40 440.15,293.24 430.25,291.04 C422.50,289.32 419.25,287.55 414.39,282.38 L 410.27 278.01 L 406.17 288.76 C385.59,342.59 377.01,385.07 370.94,463.00 C368.47,494.72 371.95,535.84 379.95,569.53 L 382.05 578.36 L 378.02 583.93 C363.09,604.59 356.90,625.46 358.25,650.67 C358.90,662.78 360.60,668.37 363.79,668.82 C369.63,669.65 386.61,654.70 393.94,642.26 L 398.21 635.03 L 395.61 626.95 C390.47,611.02 393.50,612.63 399.47,629.00 C409.45,656.38 418.25,675.68 435.04,707.00 C444.95,725.49 455.37,738.58 474.85,757.01 C484.91,766.52 487.92,769.97 488.29,772.39 C496.12,823.04 510.85,865.58 529.20,890.50 C544.59,911.40 573.87,934.20 594.80,941.59 ZM 588.50 336.76 C590.70,337.33 593.72,337.84 595.22,337.90 C599.27,338.05 606.79,335.21 610.08,332.27 C613.39,329.32 614.36,326.41 616.50,313.00 C617.33,307.77 618.44,301.25 618.97,298.50 C620.36,291.17 621.76,276.87 623.08,256.50 C623.72,246.60 624.84,236.36 625.57,233.75 C627.57,226.58 626.79,216.49 623.79,210.50 C622.16,207.27 620.48,200.73 619.02,192.00 C617.77,184.57 616.13,176.25 615.37,173.50 C612.82,164.35 612.68,162.51 614.44,161.05 C617.14,158.81 624.43,159.17 627.68,161.70 C635.37,167.70 638.13,169.20 642.18,169.59 C646.35,170.00 646.39,169.97 643.50,168.86 C641.85,168.23 636.80,164.18 632.27,159.86 L 624.05 152.00 L 617.49 152.00 C612.14,152.00 610.83,151.68 610.36,150.25 C605.49,135.51 590.14,121.06 575.00,116.97 C563.72,113.92 549.18,114.05 540.00,117.28 C538.08,117.96 533.88,120.02 530.68,121.87 L 524.87 125.22 L 522.68 123.23 C519.61,120.42 514.53,118.00 511.71,118.00 C510.39,118.00 506.70,118.90 503.50,120.00 C500.30,121.10 495.41,122.00 492.62,122.00 C488.07,122.00 487.75,122.14 489.53,123.34 C492.61,125.45 495.31,125.81 501.10,124.90 C507.84,123.83 513.22,125.19 515.95,128.66 C517.08,130.09 518.00,131.56 518.00,131.92 C518.00,132.28 513.38,136.24 507.73,140.72 C502.08,145.20 494.17,152.04 490.16,155.92 C485.19,160.71 481.62,163.30 478.98,164.00 C476.72,164.62 472.81,167.15 469.57,170.11 C464.81,174.46 463.75,176.12 462.02,181.94 C460.91,185.67 460.00,189.42 460.00,190.27 C460.00,191.13 459.65,191.98 459.23,192.17 C457.99,192.70 449.97,203.67 442.90,214.50 C434.09,228.00 427.57,239.65 418.98,257.28 C412.19,271.22 411.85,272.23 413.04,275.10 C414.71,279.12 419.25,283.57 424.37,286.20 C427.57,287.84 430.22,288.31 436.13,288.25 C445.61,288.16 453.16,285.20 468.56,275.53 C490.77,261.59 504.47,257.36 518.95,259.99 C536.46,263.17 546.65,273.63 559.10,301.23 C569.83,325.01 577.11,333.81 588.50,336.76 ZM 661.00 492.05 C666.55,493.28 672.57,493.87 678.33,493.72 C686.93,493.51 687.24,493.41 690.08,490.23 C692.86,487.13 693.00,486.53 693.00,477.73 C692.99,453.78 683.79,427.79 667.60,405.98 C652.40,385.49 612.03,351.18 608.92,356.10 C608.43,356.87 608.02,358.09 608.02,358.81 C608.00,360.21 607.83,360.78 599.98,386.00 C595.09,401.71 593.68,405.74 587.62,421.17 C586.18,424.84 585.00,429.04 585.00,430.50 C585.00,431.96 587.49,438.02 590.53,443.96 C603.58,469.48 624.85,483.99 661.00,492.05 ZM 304.36 400.49 C314.81,402.32 336.17,401.80 344.50,399.50 C352.89,397.19 363.64,391.87 370.80,386.49 C376.52,382.19 376.94,381.59 377.97,376.21 C380.19,364.64 388.14,333.08 392.38,319.00 C394.79,311.02 396.55,304.16 396.32,303.75 C395.10,301.65 371.05,303.80 354.50,307.49 C325.37,313.99 302.81,324.59 285.46,339.95 C271.52,352.29 257.99,370.61 258.00,377.14 C258.01,381.84 261.57,385.72 269.20,389.35 C278.51,393.78 293.91,398.66 304.36,400.49 ZM 542.57 674.42 C548.92,676.75 549.79,676.47 551.09,671.75 C552.62,666.18 550.86,650.22 547.40,638.20 C544.66,628.72 537.82,615.10 532.22,608.00 C527.66,602.21 519.80,594.00 518.82,594.00 C516.77,594.00 511.40,621.70 510.37,637.53 L 509.73 647.57 L 514.80 653.67 C522.26,662.63 533.68,671.16 542.57,674.42 ZM 463.83 500.75 C463.86,510.24 463.75,518.00 463.57,518.00 C463.39,518.00 462.67,512.11 461.95,504.92 C460.46,489.86 461.17,480.08 466.04,448.31 C469.16,427.98 472.24,412.35 477.11,392.13 C478.75,385.33 479.90,379.57 479.66,379.33 C479.12,378.79 469.92,402.01 465.33,415.50 C461.31,427.32 454.00,452.28 454.00,454.17 C454.00,454.90 455.33,458.31 456.96,461.75 C460.15,468.50 459.43,470.17 455.76,464.51 C453.76,461.43 452.00,460.02 452.00,461.52 C452.00,461.80 450.85,467.76 449.45,474.77 C448.05,481.77 447.15,488.88 447.46,490.56 C447.77,492.25 450.03,496.68 452.48,500.41 C455.80,505.48 456.37,506.83 454.72,505.75 C453.50,504.95 451.15,502.46 449.50,500.21 C447.85,497.96 446.04,496.26 445.48,496.44 C444.80,496.66 444.69,493.81 445.16,487.96 C446.93,465.81 457.76,425.54 470.71,393.00 C477.91,374.89 487.75,353.42 488.50,354.17 C488.77,354.43 486.50,364.51 483.46,376.57 C470.39,428.54 463.72,470.69 463.83,500.75 ZM 482.49 702.44 C484.94,709.01 486.77,714.56 486.56,714.77 C486.04,715.30 476.87,699.69 472.10,690.17 C467.55,681.09 463.47,670.19 464.31,669.36 C464.63,669.03 467.05,673.10 469.67,678.38 C472.30,683.67 474.79,688.00 475.20,688.00 C475.61,688.00 475.50,686.81 474.95,685.36 C473.39,681.27 474.78,681.23 476.49,685.31 C477.32,687.31 478.01,689.29 478.01,689.72 C478.02,690.15 480.03,695.87 482.49,702.44 ZM 457.72 633.86 C460.68,636.07 459.31,636.51 454.90,634.75 C452.85,633.94 451.87,632.32 450.24,627.11 C447.40,617.98 444.79,603.78 445.23,599.81 L 445.59 596.50 L 446.85 599.47 C447.55,601.10 449.70,604.36 451.63,606.72 C455.35,611.26 455.18,612.45 451.32,608.83 C450.05,607.64 448.76,606.90 448.47,607.20 C447.66,608.00 451.64,625.41 453.41,628.83 C454.26,630.46 456.19,632.72 457.72,633.86 ZM 449.87 528.18 C452.27,531.43 454.05,534.29 453.81,534.52 C453.58,534.76 451.05,532.59 448.19,529.69 C444.21,525.66 443.01,523.74 443.06,521.47 C443.11,518.78 443.23,518.68 444.31,520.38 C444.96,521.42 447.47,524.93 449.87,528.18 ZM 449.80 570.63 C454.99,577.09 453.76,577.65 447.52,571.67 C444.12,568.41 443.01,566.62 443.06,564.42 C443.11,561.77 443.23,561.67 444.31,563.38 C444.96,564.41 447.44,567.67 449.80,570.63 ZM 677.44 450.19 C678.41,452.76 679.03,455.41 678.80,456.09 C678.58,456.76 677.59,455.22 676.61,452.66 C675.63,450.10 675.02,447.44 675.24,446.77 C675.47,446.09 676.46,447.63 677.44,450.19 Z" fill="rgb(80,73,70)"/>
<path d="M 600.14 826.01 C600.35,826.06 600.57,826.11 600.79,826.16 C599.45,825.87 598.05,825.53 596.50,825.12 C591.55,823.82 586.90,822.52 586.17,822.23 C585.44,821.95 586.67,825.37 588.91,829.83 C589.37,830.74 589.86,831.77 590.36,832.89 C588.21,828.53 585.91,825.25 583.53,823.16 C579.96,820.03 579.88,820.01 576.71,821.64 C574.94,822.54 572.43,824.12 571.12,825.14 C566.33,828.87 563.52,827.76 553.77,818.25 C548.84,813.44 541.84,805.90 538.23,801.50 C529.60,791.00 528.21,789.67 530.94,794.50 C534.91,801.54 543.79,813.32 551.49,821.80 C557.14,828.00 558.88,830.58 558.57,832.27 C558.34,833.49 558.12,835.31 558.07,836.31 C558.01,837.78 557.30,838.06 554.30,837.81 C550.93,837.53 549.99,836.69 543.81,828.50 C540.07,823.55 533.54,813.95 529.30,807.18 C525.05,800.40 521.24,794.65 520.83,794.39 C519.58,793.62 524.63,804.38 530.14,814.23 C532.99,819.33 538.62,828.30 542.66,834.16 C546.70,840.02 550.00,845.57 550.00,846.48 C550.00,850.01 548.02,852.03 544.79,851.79 C542.07,851.58 540.99,850.51 536.46,843.49 C529.76,833.09 521.49,817.83 516.57,806.74 C514.43,801.93 512.52,798.15 512.32,798.34 C511.63,799.03 516.25,812.66 520.54,822.58 C522.94,828.12 527.28,836.89 530.20,842.08 C538.60,856.99 539.63,860.40 536.52,862.98 C535.33,863.97 534.41,863.84 531.81,862.32 C526.74,859.36 516.52,837.94 506.60,809.50 C502.49,797.69 502.02,799.45 505.48,813.73 C508.37,825.66 512.13,835.87 519.75,852.46 L 525.25 864.42 L 523.62 868.96 C522.72,871.46 521.99,874.19 522.00,875.04 C522.00,877.17 530.33,890.09 537.13,898.52 C543.27,906.14 550.53,913.40 558.27,919.81 C547.03,910.86 536.54,900.46 529.20,890.50 C510.85,865.58 496.12,823.04 488.29,772.39 C487.92,769.97 484.91,766.52 474.85,757.01 C455.37,738.58 444.95,725.49 435.04,707.00 C430.02,697.65 425.72,689.36 421.89,681.62 C427.33,692.37 433.19,703.47 435.56,707.26 C437.54,710.43 439.62,712.73 440.19,712.38 C442.04,711.24 444.96,703.57 444.98,699.80 C444.99,697.76 443.57,691.75 441.83,686.44 L 438.66 676.79 L 441.37 668.63 C443.97,660.79 444.02,660.31 442.53,656.08 C441.38,652.83 441.14,649.71 441.60,644.09 C442.16,637.25 442.00,636.23 440.02,633.73 C436.59,629.40 432.48,627.77 425.27,627.88 C418.18,627.99 415.53,626.96 409.14,621.62 C406.32,619.26 403.46,617.89 400.43,617.44 C397.94,617.06 395.73,616.93 395.52,617.14 C395.26,617.41 400.18,631.00 404.92,643.44 C403.10,638.81 401.31,634.04 399.47,629.00 C393.50,612.63 390.47,611.02 395.61,626.95 L 398.21 635.03 L 393.94 642.26 C392.25,645.13 390.05,648.14 387.58,651.05 C393.38,643.93 398.38,635.43 397.59,633.38 C397.03,631.92 396.77,631.96 395.23,633.73 C392.91,636.40 389.23,636.04 384.88,632.72 C380.24,629.18 379.02,629.29 378.93,633.25 C378.77,640.73 377.32,640.26 376.66,632.51 C376.00,624.71 375.01,622.74 372.03,623.26 C370.29,623.56 368.19,629.95 368.08,635.25 C368.03,637.31 367.54,639.00 366.99,639.00 C366.39,639.00 366.20,637.47 366.52,635.25 C366.82,633.19 367.16,628.19 367.28,624.14 C367.46,618.11 367.19,616.57 365.78,615.66 C363.39,614.11 362.40,615.39 360.49,622.50 C357.84,632.34 357.53,650.53 359.32,660.98 C358.83,658.29 358.47,654.87 358.25,650.67 C356.90,625.46 363.09,604.59 378.02,583.93 L 382.05 578.36 L 379.95 569.53 C371.95,535.84 368.47,494.72 370.94,463.00 C371.63,454.16 372.35,445.77 373.12,437.77 C371.76,454.32 371.43,467.10 372.67,468.33 C373.91,469.58 375.84,469.01 378.78,466.53 C382.92,463.05 386.36,461.96 391.26,462.58 C397.35,463.34 401.07,460.72 403.95,453.64 C405.99,448.60 406.75,447.79 411.58,445.50 C418.30,442.32 419.40,440.34 418.70,432.64 C418.00,424.94 419.12,422.78 426.98,416.68 C433.71,411.45 436.00,407.47 436.00,400.99 C436.00,393.54 431.83,387.70 423.18,383.01 C420.62,381.63 417.63,379.01 416.52,377.20 C409.55,365.80 408.37,364.44 403.28,361.85 C398.48,359.42 386.59,357.07 385.35,358.31 C385.02,358.64 384.38,360.98 383.59,364.53 C389.01,338.38 396.17,314.91 406.17,288.76 L 410.27 278.01 L 414.39 282.38 C419.25,287.55 422.50,289.32 430.25,291.04 C440.15,293.24 451.73,289.40 470.78,277.59 C489.84,265.78 503.22,261.13 514.78,262.31 C532.29,264.09 541.99,272.74 553.68,297.00 C566.25,323.06 568.47,326.68 575.34,332.32 C573.87,331.24 573.26,331.26 572.75,332.13 C572.30,332.88 570.49,335.96 568.72,338.98 C566.18,343.30 564.15,345.23 559.11,348.16 C546.29,355.61 541.02,363.43 541.02,375.00 C541.02,381.96 542.79,386.57 549.26,396.44 C552.48,401.36 552.50,401.44 552.24,412.72 C552.02,422.42 552.27,424.61 553.99,427.98 C557.36,434.58 562.24,438.18 571.00,440.53 C574.32,441.42 575.80,441.44 576.63,440.62 C577.51,439.75 581.01,431.15 585.17,420.00 C579.89,434.31 574.35,448.58 570.88,456.58 C569.90,458.82 568.23,462.87 567.16,465.58 C566.09,468.29 564.06,472.98 562.65,476.00 C561.23,479.02 558.54,485.10 556.66,489.50 C554.78,493.90 549.10,506.73 544.05,518.00 C533.32,541.95 525.74,560.69 520.33,577.05 C524.60,564.06 530.07,549.92 536.92,534.11 C540.26,526.39 543.00,519.65 543.00,519.15 C543.00,518.64 540.96,517.92 538.47,517.55 C534.65,516.97 532.94,515.88 527.58,510.54 C519.90,502.90 515.82,501.66 508.73,504.80 C499.19,509.02 494.00,518.19 494.00,530.85 C494.00,537.84 491.89,542.51 486.00,548.50 C480.29,554.31 478.00,559.15 478.00,565.40 C478.00,571.51 479.24,574.35 485.51,582.54 C492.15,591.22 492.96,593.30 494.00,604.11 C494.99,614.50 497.47,619.88 503.18,624.01 C505.44,625.66 507.57,627.00 507.90,627.00 C508.15,627.00 509.00,623.45 509.97,618.49 C506.36,639.13 506.84,650.81 511.07,683.89 C513.27,701.03 519.53,719.63 527.79,733.52 C532.09,740.76 532.94,741.62 537.50,743.32 C544.27,745.84 560.12,748.51 580.00,750.46 C620.63,754.46 626.57,755.19 636.98,757.50 C637.12,757.53 637.26,757.56 637.40,757.59 C637.12,757.54 636.83,757.50 636.55,757.46 C631.82,756.75 631.80,756.75 633.02,759.04 C635.81,764.26 629.07,765.03 611.50,761.51 C599.96,759.19 572.95,756.00 566.00,756.12 L 559.50 756.24 L 570.50 758.07 C595.85,762.27 615.98,766.58 622.25,769.12 C629.64,772.13 621.00,777.57 612.66,775.17 C591.84,769.16 558.75,762.24 555.76,763.26 C555.07,763.49 559.63,764.92 565.90,766.42 C584.59,770.91 606.01,777.96 608.88,780.57 C611.63,783.08 609.84,790.00 606.44,790.00 C605.71,790.00 600.93,788.03 595.81,785.63 C585.65,780.86 555.74,770.70 553.30,771.19 C552.46,771.36 558.02,774.03 565.64,777.13 C584.67,784.86 600.25,791.85 601.75,793.33 C603.44,795.01 600.80,798.76 596.71,800.48 C593.84,801.69 593.28,801.49 586.09,796.80 C577.70,791.32 550.19,777.48 549.35,778.32 C549.06,778.61 552.26,780.73 556.46,783.04 C560.66,785.35 569.59,790.95 576.30,795.50 C586.64,802.50 588.46,804.12 588.22,806.11 C588.07,807.40 587.28,808.83 586.46,809.28 C584.69,810.27 581.78,816.84 582.56,818.09 C583.96,820.37 592.57,824.24 600.14,826.01 ZM 588.50 336.76 C577.11,333.81 569.83,325.01 559.10,301.23 C546.65,273.63 536.46,263.17 518.95,259.99 C504.47,257.36 490.77,261.59 468.56,275.53 C453.16,285.20 445.61,288.16 436.13,288.25 C430.22,288.31 427.57,287.84 424.37,286.20 C419.25,283.57 414.71,279.12 413.04,275.10 C411.85,272.23 412.19,271.22 418.98,257.28 C427.57,239.65 434.09,228.00 442.90,214.50 C449.97,203.67 457.99,192.70 459.23,192.17 C459.65,191.98 460.00,191.13 460.00,190.27 C460.00,189.96 460.12,189.25 460.34,188.29 C459.92,191.23 460.43,193.43 461.87,194.87 C464.15,197.15 465.26,196.97 472.72,193.12 C481.25,188.72 491.30,174.47 490.79,167.50 C490.50,163.57 490.43,163.49 486.29,163.19 C483.97,163.03 481.12,163.40 479.96,164.02 C477.99,165.08 477.96,165.25 479.54,166.41 C480.97,167.45 481.05,168.03 480.04,169.92 C478.08,173.58 471.88,180.01 468.74,181.64 C466.06,183.02 465.71,182.99 464.49,181.32 C463.24,179.62 463.07,179.70 461.97,182.50 C461.78,182.99 461.60,183.47 461.44,183.94 C461.62,183.28 461.82,182.61 462.02,181.94 C463.75,176.12 464.81,174.46 469.57,170.11 C472.81,167.15 476.72,164.62 478.98,164.00 C481.62,163.30 485.19,160.71 490.16,155.92 C494.17,152.04 502.08,145.20 507.73,140.72 C513.38,136.24 518.00,132.28 518.00,131.92 C518.00,131.56 517.08,130.09 515.95,128.66 C513.22,125.19 507.84,123.83 501.10,124.90 C495.31,125.81 492.61,125.45 489.53,123.34 C487.75,122.14 488.07,122.00 492.62,122.00 C495.41,122.00 500.30,121.10 503.50,120.00 C506.70,118.90 510.39,118.00 511.71,118.00 C514.53,118.00 519.61,120.42 522.68,123.23 L 524.87 125.22 L 530.68 121.87 C533.88,120.02 538.08,117.96 540.00,117.28 C549.18,114.05 563.72,113.92 575.00,116.97 C590.14,121.06 605.49,135.51 610.36,150.25 C610.83,151.68 612.14,152.00 617.49,152.00 L 624.05 152.00 L 632.27 159.86 C636.80,164.18 641.85,168.23 643.50,168.86 C646.39,169.97 646.35,170.00 642.18,169.59 C638.13,169.20 635.37,167.70 627.68,161.70 C624.43,159.17 617.14,158.81 614.44,161.05 C612.68,162.51 612.82,164.35 615.37,173.50 C616.13,176.25 617.77,184.57 619.02,192.00 C620.48,200.73 622.16,207.27 623.79,210.50 C626.79,216.49 627.57,226.58 625.57,233.75 C624.84,236.36 623.72,246.60 623.08,256.50 C621.76,276.87 620.36,291.17 618.97,298.50 C618.44,301.25 617.33,307.77 616.50,313.00 C614.36,326.41 613.39,329.32 610.08,332.27 C606.79,335.21 599.27,338.05 595.22,337.90 C593.72,337.84 590.70,337.33 588.50,336.76 ZM 677.44 450.19 C676.46,447.63 675.47,446.09 675.24,446.77 C675.06,447.31 675.43,449.15 676.10,451.19 C675.93,450.78 675.76,450.34 675.58,449.88 C671.33,438.82 663.42,424.06 657.64,416.39 C653.67,411.11 651.76,409.41 649.23,408.90 C645.97,408.25 644.79,408.97 644.34,411.90 C644.23,412.68 645.87,416.76 647.99,420.99 C652.86,430.67 658.66,447.21 659.42,453.61 C659.93,457.91 659.60,457.36 656.65,449.00 C653.19,439.21 646.31,424.70 642.70,419.60 L 640.65 416.70 L 638.36 419.37 C633.63,424.87 633.38,428.62 636.86,441.77 C640.50,455.53 640.98,461.76 637.61,451.50 C634.71,442.65 631.94,436.95 629.94,435.72 C628.79,435.00 626.93,435.74 622.69,438.59 C617.49,442.10 617.00,442.74 617.00,446.12 C617.00,449.22 616.70,449.74 615.15,449.33 C613.86,448.99 612.17,450.15 609.62,453.13 C607.60,455.49 604.81,457.89 603.41,458.46 L 600.88 459.50 L 604.43 463.65 C605.09,464.42 605.79,465.18 606.52,465.93 C600.11,459.72 594.87,452.45 590.53,443.96 C587.49,438.02 585.00,431.96 585.00,430.50 C585.00,429.04 586.18,424.84 587.62,421.17 C593.68,405.74 595.09,401.71 599.98,386.00 C607.83,360.78 608.00,360.21 608.02,358.81 C608.02,358.09 608.43,356.87 608.92,356.10 C612.03,351.18 652.40,385.49 667.60,405.98 C668.19,406.77 668.77,407.57 669.34,408.37 C667.28,405.61 665.12,403.00 662.87,400.59 C657.73,395.06 657.32,394.82 655.71,396.43 C652.92,399.22 653.63,403.64 657.87,409.84 C667.24,423.56 673.35,435.74 677.02,448.06 C677.59,449.97 678.01,451.55 678.30,452.78 C678.07,451.96 677.77,451.07 677.44,450.19 ZM 463.83 500.75 C463.72,470.69 470.39,428.54 483.46,376.57 C486.50,364.51 488.77,354.43 488.50,354.17 C487.75,353.42 477.91,374.89 470.71,393.00 C457.76,425.54 446.93,465.81 445.16,487.96 C444.69,493.81 444.80,496.66 445.48,496.44 C446.04,496.26 447.85,497.96 449.50,500.21 C451.15,502.46 453.50,504.95 454.72,505.75 C454.85,505.84 454.96,505.91 455.07,505.96 C454.61,506.21 452.77,504.60 449.89,501.01 C448.14,498.84 446.37,497.27 445.95,497.53 C445.53,497.79 444.87,502.66 444.49,508.36 C443.92,516.73 443.83,519.25 446.25,523.20 C445.33,521.90 444.62,520.87 444.31,520.38 C443.23,518.68 443.11,518.78 443.06,521.47 C443.01,523.74 444.21,525.66 448.19,529.69 L 448.25 529.75 L 443.00 524.57 L 443.00 542.33 C443.00,556.90 443.09,561.09 445.96,565.68 C445.18,564.64 444.58,563.81 444.31,563.38 C443.23,561.67 443.11,561.77 443.06,564.42 C443.01,566.62 444.12,568.41 447.52,571.67 C448.27,572.39 448.94,573.01 449.55,573.54 C448.99,573.09 448.37,572.56 447.70,571.97 L 443.11 567.93 L 443.55 571.22 C443.79,573.02 444.46,579.57 445.02,585.76 C445.88,595.13 446.47,598.86 448.47,602.36 C447.75,601.22 447.16,600.19 446.85,599.47 L 445.59 596.50 L 445.23 599.81 C444.79,603.78 447.40,617.98 450.24,627.11 C451.87,632.32 452.85,633.94 454.90,634.75 C459.31,636.51 460.68,636.07 457.72,633.86 C460.67,636.06 459.74,636.61 455.69,635.07 L 453.26 634.15 L 455.55 641.32 C461.31,659.43 463.52,665.28 468.74,676.25 C470.37,679.69 471.95,682.79 473.14,684.94 C472.15,683.22 470.93,680.91 469.67,678.38 C467.05,673.10 464.63,669.03 464.31,669.36 C463.47,670.19 467.55,681.09 472.10,690.17 C476.87,699.69 486.04,715.30 486.56,714.77 C486.77,714.56 484.94,709.01 482.49,702.44 C480.03,695.87 478.02,690.15 478.01,689.72 C478.01,689.29 477.32,687.31 476.49,685.31 C474.84,681.37 473.49,681.28 474.80,684.96 C474.55,684.44 474.25,683.92 473.91,683.48 C472.88,682.12 469.00,663.00 469.00,659.27 C469.00,657.66 467.88,652.59 466.50,648.00 C465.08,643.26 464.00,637.14 464.00,633.84 C464.00,630.31 463.02,625.13 461.50,620.59 C458.52,611.72 458.26,603.55 460.64,593.40 L 462.30 586.30 L 459.15 577.61 C454.69,565.27 454.30,560.24 457.02,550.16 C458.70,543.92 459.10,540.49 458.62,536.38 C458.08,531.84 458.42,529.80 460.59,524.37 L 463.21 517.83 L 462.20 507.35 C462.83,513.39 463.41,518.00 463.57,518.00 C463.75,518.00 463.86,510.24 463.83,500.75 ZM 350.97 397.32 C351.26,397.15 351.52,396.97 351.74,396.79 C352.69,396.01 352.40,395.31 350.49,393.81 C349.12,392.74 348.00,391.21 348.00,390.42 C348.00,389.63 346.81,386.78 345.36,384.10 L 342.72 379.21 L 346.99 373.20 L 345.02 368.85 C343.93,366.46 343.03,363.77 343.02,362.87 C343.01,361.98 342.35,360.70 341.55,360.04 C339.75,358.55 334.70,361.83 324.71,371.01 C320.97,374.44 317.72,377.05 317.47,376.80 C317.22,376.55 321.51,371.67 327.01,365.94 C337.90,354.59 338.94,352.09 335.32,345.97 L 333.65 343.13 L 329.07 345.68 C322.49,349.34 315.54,354.47 307.25,361.78 C303.26,365.30 300.00,367.88 300.00,367.50 C300.00,365.01 321.94,345.15 330.30,340.08 C332.39,338.81 333.90,337.56 333.64,337.31 C333.39,337.06 333.62,335.42 334.15,333.67 C335.66,328.70 335.94,327.00 335.25,327.00 C332.70,327.00 304.86,341.96 298.00,347.01 C293.33,350.45 288.83,353.75 288.00,354.33 C287.17,354.92 288.75,353.04 291.50,350.16 C298.62,342.70 311.55,333.82 324.13,327.74 L 334.98 322.50 L 334.99 317.75 C335.00,315.14 334.76,313.00 334.46,313.00 C334.39,313.00 334.26,313.02 334.08,313.07 C340.50,310.95 347.30,309.10 354.50,307.49 C371.05,303.80 395.10,301.65 396.32,303.75 C396.55,304.16 394.79,311.02 392.38,319.00 C388.14,333.08 380.19,364.64 377.97,376.21 C376.94,381.59 376.52,382.19 370.80,386.49 C365.39,390.56 357.92,394.59 350.97,397.32 ZM 549.46 646.77 C548.26,641.29 546.64,636.01 544.79,632.02 C540.38,622.55 538.14,619.64 536.40,621.08 C534.45,622.70 534.63,624.93 537.43,633.80 C538.77,638.03 540.10,643.53 540.40,646.00 L 540.95 650.50 L 539.10 645.00 C535.94,635.58 533.13,630.00 531.57,630.00 C528.99,630.00 527.86,633.51 528.92,638.22 C530.33,644.47 530.93,651.07 530.04,650.52 C529.61,650.26 528.98,648.26 528.63,646.08 C528.28,643.90 527.53,641.83 526.95,641.47 C525.45,640.54 521.06,643.70 520.01,646.48 C519.42,648.03 518.15,648.97 516.38,649.18 C514.88,649.36 513.49,650.01 513.29,650.62 C513.15,651.03 513.30,651.61 513.69,652.33 L 509.73 647.57 L 510.37 637.53 C511.40,621.70 516.77,594.00 518.82,594.00 C519.80,594.00 527.66,602.21 532.22,608.00 C537.82,615.10 544.66,628.72 547.40,638.20 C548.18,640.91 548.87,643.83 549.46,646.77 ZM 613.22 240.74 C615.94,243.63 618.09,243.60 620.89,240.62 C623.24,238.11 627.09,227.51 624.82,229.78 C622.75,231.85 621.37,231.16 619.73,227.25 C616.72,220.11 616.66,209.00 619.63,209.00 C621.55,209.00 621.34,207.70 618.93,204.63 C612.99,197.09 606.56,205.64 606.63,221.00 C606.66,229.05 609.10,236.35 613.22,240.74 ZM 593.50 144.47 C596.25,146.92 598.63,148.94 598.79,148.96 C599.91,149.11 596.09,144.25 591.14,139.23 C579.71,127.61 564.41,122.78 549.50,126.08 L 543.50 127.41 L 552.00 128.11 C568.46,129.46 583.13,135.25 593.50,144.47 ZM 626.08 827.38 C633.59,826.64 642.04,825.05 652.00,822.58 C663.49,819.73 671.52,818.13 678.59,817.52 C671.52,818.14 663.43,819.77 651.62,822.70 C637.57,826.19 633.32,827.12 626.08,827.38 ZM 542.57 674.42 C535.92,671.98 527.84,666.59 521.08,660.27 C527.39,665.76 536.15,671.85 542.00,674.14 C543.73,674.82 545.08,675.31 546.16,675.59 C545.20,675.35 544.03,674.96 542.57,674.42 ZM 655.91 762.66 C666.65,766.23 676.19,770.65 684.99,776.16 C676.61,771.13 665.98,766.24 655.91,762.66 ZM 661.00 492.05 C645.09,488.50 632.07,483.71 621.35,477.28 C631.99,483.52 645.50,488.59 661.00,492.05 ZM 700.54 787.65 C702.29,789.15 704.02,790.72 705.74,792.34 C712.57,798.82 717.27,804.25 719.83,808.59 C716.16,802.82 708.72,794.76 700.54,787.65 ZM 326.46 401.51 C333.50,401.22 340.30,400.44 345.20,399.31 C344.96,399.37 344.73,399.44 344.50,399.50 C340.56,400.59 333.70,401.28 326.46,401.51 ZM 259.98 382.74 C258.65,380.99 258.01,379.14 258.00,377.14 C258.00,375.05 259.38,371.76 261.72,367.84 C261.49,368.24 261.27,368.65 261.05,369.05 C257.50,375.73 257.29,378.32 259.95,382.69 ZM 576.49 333.22 C580.58,336.34 584.95,338.46 589.34,339.53 C584.72,338.50 580.28,336.41 576.65,333.36 C576.59,333.31 576.54,333.27 576.49,333.22 ZM 331.17 314.06 C327.20,315.53 320.52,318.23 315.64,320.36 C320.54,318.06 325.71,315.96 331.17,314.06 ZM 280.82 344.28 C282.35,342.78 283.90,341.33 285.46,339.95 C289.16,336.68 293.10,333.61 297.29,330.76 C291.55,334.79 285.94,339.40 280.82,344.28 ZM 275.07 391.89 C272.94,391.04 270.96,390.19 269.20,389.35 C266.08,387.86 263.64,386.34 261.84,384.73 C264.51,386.95 269.26,389.48 275.07,391.89 ZM 686.90 442.59 C690.88,454.32 692.99,466.26 693.00,477.73 C692.99,466.42 690.80,454.28 686.90,442.59 ZM 461.31 495.38 C461.06,487.95 461.56,480.51 463.13,468.49 C461.60,480.33 461.09,487.96 461.31,495.38 ZM 452.93 575.82 C453.30,575.70 452.79,574.60 451.29,572.56 C453.09,574.85 453.60,575.94 452.93,575.82 ZM 453.81 534.32 C453.65,533.74 452.61,532.04 451.15,529.95 C453.03,532.51 453.91,533.97 453.81,534.32 ZM 511.06 612.59 C511.83,608.42 512.74,604.17 513.79,599.79 C513.11,602.65 512.49,605.46 511.92,608.26 C511.62,609.75 511.33,611.20 511.06,612.59 ZM 592.70 399.04 C593.52,396.66 594.32,394.30 595.09,392.00 C597.30,385.37 601.17,372.43 604.54,360.69 C601.17,372.42 597.30,385.37 595.09,392.00 C594.36,394.20 593.56,396.56 592.70,399.04 ZM 549.40 675.37 C550.13,674.77 550.57,673.60 551.07,671.75 C551.22,671.18 551.35,670.54 551.45,669.83 C551.36,670.56 551.24,671.21 551.09,671.75 C550.58,673.61 550.13,674.78 549.40,675.37 ZM 364.18 668.86 C365.06,668.83 366.09,668.59 367.23,668.14 C366.06,668.62 365.03,668.88 364.18,668.86 ZM 475.39 687.86 C475.35,687.95 475.29,688.00 475.20,688.00 C475.19,688.00 475.19,688.00 475.18,688.00 C475.27,687.98 475.34,687.94 475.39,687.86 Z" fill="rgb(220,104,39)"/>
<path d="M 0.00 512.00 L 0.00 0.00 L 512.00 0.00 L 1024.00 0.00 L 1024.00 512.00 L 1024.00 1024.00 L 512.00 1024.00 L 0.00 1024.00 L 0.00 512.00 ZM 610.76 953.33 C618.59,947.48 619.50,941.69 614.95,926.45 L 611.68 915.50 L 610.95 885.00 C610.41,862.37 609.82,852.95 608.65,848.50 C607.78,845.20 607.06,842.00 607.04,841.38 C607.01,840.62 611.51,840.10 620.75,839.78 C632.83,839.36 636.87,838.72 654.00,834.53 L 673.50 829.75 L 690.00 830.54 C718.94,831.93 723.47,831.79 726.68,829.41 C731.68,825.70 734.00,821.26 734.00,815.40 C734.00,812.48 733.46,808.84 732.79,807.30 C727.53,795.15 709.61,777.18 690.41,764.82 C678.83,757.36 662.83,750.75 646.21,746.57 C631.85,742.95 620.70,741.48 581.00,737.97 C565.74,736.62 544.52,733.35 541.90,731.95 C538.90,730.34 529.21,709.98 526.54,699.68 C524.21,690.69 522.40,679.00 523.33,679.00 C523.58,679.00 526.59,680.39 530.01,682.09 C545.37,689.71 551.03,689.92 558.27,683.17 C567.98,674.11 564.80,640.43 551.97,616.30 C547.15,607.25 540.95,598.80 534.91,593.04 L 530.22 588.57 L 534.20 577.04 C539.49,561.67 546.52,544.65 560.04,514.50 C566.21,500.75 573.94,483.20 577.21,475.50 C580.49,467.80 583.61,461.05 584.15,460.50 C584.80,459.84 585.86,460.51 587.28,462.50 C591.72,468.73 603.56,480.14 610.67,485.05 C624.23,494.43 640.56,500.79 660.75,504.57 C672.53,506.78 686.95,506.20 692.50,503.28 C701.99,498.30 705.12,491.64 705.15,476.37 C705.20,449.16 693.94,419.68 673.50,393.50 C662.87,379.89 641.85,360.74 627.99,352.06 C624.97,350.17 622.36,348.53 622.19,348.42 C622.03,348.31 623.47,340.86 625.40,331.86 C631.20,304.78 635.00,273.53 635.00,252.85 C635.00,246.48 635.63,241.73 637.14,236.77 C640.04,227.21 639.30,216.38 635.13,207.46 C633.53,204.05 631.91,198.97 631.52,196.17 C631.14,193.38 630.01,187.93 629.01,184.05 C628.02,180.17 627.38,177.00 627.60,177.00 C627.83,177.00 629.66,177.89 631.68,178.97 C641.81,184.40 653.88,183.81 660.51,177.56 C663.58,174.66 664.00,173.67 664.00,169.35 C664.00,161.30 659.29,157.00 650.48,157.00 C646.10,157.00 645.53,156.66 639.65,150.54 C633.25,143.89 628.25,141.00 623.12,141.00 C620.55,141.00 619.49,139.96 614.58,132.57 C608.21,123.01 602.52,117.60 592.69,111.75 C575.76,101.68 551.00,100.26 531.28,108.23 C525.51,110.56 525.34,110.57 521.45,108.83 C516.42,106.57 510.42,106.53 501.16,108.69 C493.90,110.39 493.79,110.39 489.66,108.20 C477.60,101.81 467.14,110.93 472.36,123.28 C474.96,129.43 482.64,135.12 490.55,136.77 L 494.13 137.51 L 485.58 144.76 C480.88,148.74 476.46,152.00 475.77,152.01 C473.00,152.03 464.05,158.15 459.69,163.00 C454.62,168.64 448.00,180.90 448.00,184.64 C448.00,185.95 445.60,190.28 442.67,194.26 C425.30,217.88 406.26,252.43 395.67,279.58 L 391.41 290.50 L 377.96 291.73 C351.47,294.16 329.16,299.86 310.39,308.98 C289.99,318.90 273.53,331.97 260.21,348.81 C246.18,366.56 243.33,375.50 248.28,386.31 C251.29,392.87 255.76,396.52 267.66,402.08 C295.25,414.99 334.67,417.72 358.12,408.33 C360.30,407.46 362.29,406.96 362.55,407.22 C362.81,407.47 362.35,413.49 361.53,420.59 C355.65,471.82 356.99,512.42 366.14,560.76 L 369.23 577.02 L 365.23 582.26 C352.35,599.13 345.98,619.86 346.02,644.79 C346.04,658.71 347.90,670.02 350.84,674.00 C359.35,685.53 371.95,682.74 391.28,665.03 C394.47,662.12 397.22,659.91 397.40,660.12 C397.58,660.33 399.42,664.33 401.49,669.00 C419.77,710.33 440.08,740.60 466.31,765.64 L 476.93 775.77 L 479.97 792.14 C489.04,840.91 501.94,874.25 521.89,900.50 C548.53,935.54 596.44,964.02 610.76,953.33 ZM 408.93 804.25 C408.89,803.84 403.64,799.45 397.27,794.50 C372.03,774.88 354.98,754.94 340.42,728.00 C319.20,688.75 316.77,684.88 297.06,659.09 C292.47,653.08 286.38,643.37 282.65,636.09 C272.82,616.91 269.56,605.01 265.97,575.27 C260.52,530.07 256.46,515.35 244.04,495.69 C239.83,489.02 237.46,487.09 240.31,492.66 C242.94,497.79 247.79,514.30 249.81,525.00 C252.15,537.35 252.67,542.47 254.04,566.50 C255.82,597.50 258.69,612.92 266.20,631.78 C271.70,645.58 277.44,654.99 291.79,673.77 C306.38,692.86 308.74,696.44 320.70,717.50 C335.19,743.04 343.62,755.32 354.77,767.14 C367.08,780.19 382.34,791.73 398.50,800.21 C407.69,805.04 409.06,805.57 408.93,804.25 ZM 779.02 649.35 C788.29,632.45 795.08,623.59 814.54,603.00 C834.48,581.90 840.16,574.36 848.02,558.50 C855.95,542.53 858.47,533.86 862.99,507.12 C867.44,480.72 870.50,470.53 883.44,439.15 C892.73,416.61 896.62,402.55 899.05,382.71 C900.40,371.79 899.88,369.10 897.99,377.20 C895.42,388.23 887.39,408.32 876.29,431.50 C858.76,468.11 854.62,480.26 849.56,510.00 C844.16,541.71 835.62,560.98 817.35,582.61 C813.58,587.06 807.29,594.52 803.36,599.17 C790.16,614.80 781.25,629.74 777.24,643.00 C775.06,650.20 773.66,657.00 774.36,657.00 C774.61,657.00 776.71,653.56 779.02,649.35 ZM 184.57 610.01 C171.15,582.60 166.42,569.91 162.92,551.84 C158.69,530.03 161.73,509.57 173.09,483.33 C175.79,477.10 180.24,466.83 182.97,460.52 C193.79,435.53 196.29,421.06 195.34,388.99 C194.61,364.49 195.52,355.38 200.04,341.78 C205.81,324.45 211.80,315.10 229.67,295.59 C254.74,268.22 264.93,254.53 274.38,235.50 C280.47,223.24 289.03,200.73 288.97,197.14 C288.96,196.24 286.53,200.26 283.58,206.08 C274.35,224.30 261.64,243.67 250.17,257.00 C247.09,260.58 236.67,271.60 227.01,281.50 C217.35,291.40 206.90,302.88 203.79,307.00 C193.72,320.33 186.29,338.14 182.93,357.00 C182.14,361.47 181.98,371.13 182.42,388.00 C183.35,423.17 181.49,432.73 166.98,467.63 C154.92,496.62 151.82,508.90 151.72,528.00 C151.62,546.89 155.12,561.34 164.80,582.07 C171.16,595.68 189.38,625.00 191.49,625.00 C191.72,625.00 188.61,618.25 184.57,610.01 ZM 747.47 547.50 C766.30,518.84 768.37,515.45 772.69,506.35 C783.55,483.45 784.24,468.23 776.01,432.50 C771.48,412.82 770.53,405.54 768.54,375.50 C767.16,354.77 765.26,338.59 763.14,329.50 C762.37,326.21 762.19,327.55 762.11,337.00 C762.07,343.33 761.51,360.25 760.87,374.62 C759.54,404.57 760.20,415.03 765.00,440.38 C767.26,452.36 768.00,459.10 767.99,467.88 C767.96,487.73 765.52,494.63 746.55,528.37 C739.70,540.54 731.88,555.68 729.17,562.00 C724.14,573.72 718.00,592.67 718.00,596.42 C718.01,597.57 722.42,590.40 727.81,580.50 C733.20,570.60 742.05,555.75 747.47,547.50 ZM 833.11 415.00 C835.91,394.54 836.46,387.53 836.43,372.50 C836.38,346.42 833.14,333.85 819.18,305.50 C814.57,296.15 805.43,276.60 798.85,262.05 C784.37,230.02 779.10,220.98 768.94,210.75 C760.32,202.07 756.94,200.52 762.39,207.75 C769.03,216.54 776.22,231.08 780.56,244.50 C788.32,268.49 794.06,282.84 806.76,310.00 C824.38,347.70 826.71,359.04 827.11,409.10 C827.31,433.49 827.80,441.64 828.98,440.34 C829.41,439.88 831.26,428.48 833.11,415.00 ZM 594.80 941.59 C575.32,934.72 552.66,917.79 537.13,898.52 C530.33,890.09 522.00,877.17 522.00,875.04 C521.99,874.19 522.72,871.46 523.62,868.96 L 525.25 864.42 L 519.75 852.46 C512.13,835.87 508.37,825.66 505.48,813.73 C502.02,799.45 502.49,797.69 506.60,809.50 C516.52,837.94 526.74,859.36 531.81,862.32 C534.41,863.84 535.33,863.97 536.52,862.98 C539.63,860.40 538.60,856.99 530.20,842.08 C527.28,836.89 522.94,828.12 520.54,822.58 C516.25,812.66 511.63,799.03 512.32,798.34 C512.52,798.15 514.43,801.93 516.57,806.74 C521.49,817.83 529.76,833.09 536.46,843.49 C540.99,850.51 542.07,851.58 544.79,851.79 C548.02,852.03 550.00,850.01 550.00,846.48 C550.00,845.57 546.70,840.02 542.66,834.16 C538.62,828.30 532.99,819.33 530.14,814.23 C524.63,804.38 519.58,793.62 520.83,794.39 C521.24,794.65 525.05,800.40 529.30,807.18 C533.54,813.95 540.07,823.55 543.81,828.50 C549.99,836.69 550.93,837.53 554.30,837.81 C557.30,838.06 558.01,837.78 558.07,836.31 C558.12,835.31 558.34,833.49 558.57,832.27 C558.88,830.58 557.14,828.00 551.49,821.80 C543.79,813.32 534.91,801.54 530.94,794.50 C528.21,789.67 529.60,791.00 538.23,801.50 C541.84,805.90 548.84,813.44 553.77,818.25 C563.52,827.76 566.33,828.87 571.12,825.14 C572.43,824.12 574.94,822.54 576.71,821.64 C579.88,820.01 579.96,820.03 583.53,823.16 C588.00,827.08 592.17,835.20 595.62,846.70 C598.16,855.13 598.29,856.69 598.67,883.83 C599.09,913.16 599.71,918.86 604.04,933.18 C605.97,939.57 606.14,941.13 605.06,942.43 C603.37,944.46 602.78,944.41 594.80,941.59 ZM 600.14 826.01 C592.57,824.24 583.96,820.37 582.56,818.09 C581.78,816.84 584.69,810.27 586.46,809.28 C587.28,808.83 588.07,807.40 588.22,806.11 C588.46,804.12 586.64,802.50 576.30,795.50 C569.59,790.95 560.66,785.35 556.46,783.04 C552.26,780.73 549.06,778.61 549.35,778.32 C550.19,777.48 577.70,791.32 586.09,796.80 C593.28,801.49 593.84,801.69 596.71,800.48 C600.80,798.76 603.44,795.01 601.75,793.33 C600.25,791.85 584.67,784.86 565.64,777.13 C558.02,774.03 552.46,771.36 553.30,771.19 C555.74,770.70 585.65,780.86 595.81,785.63 C600.93,788.03 605.71,790.00 606.44,790.00 C609.84,790.00 611.63,783.08 608.88,780.57 C606.01,777.96 584.59,770.91 565.90,766.42 C559.63,764.92 555.07,763.49 555.76,763.26 C558.75,762.24 591.84,769.16 612.66,775.17 C621.00,777.57 629.64,772.13 622.25,769.12 C615.98,766.58 595.85,762.27 570.50,758.07 L 559.50 756.24 L 566.00 756.12 C572.95,756.00 599.96,759.19 611.50,761.51 C629.07,765.03 635.81,764.26 633.02,759.04 C631.80,756.75 631.82,756.75 636.55,757.46 C652.01,759.77 677.03,770.15 690.84,779.96 C704.79,789.88 719.99,805.99 722.00,813.00 C722.58,815.01 722.36,816.47 721.26,818.05 C719.54,820.50 717.27,820.49 696.00,817.93 C682.61,816.32 673.21,817.31 652.00,822.58 C629.06,828.28 614.11,829.27 600.14,826.01 ZM 435.56 707.26 C431.23,700.35 415.31,669.12 411.46,660.00 C406.79,648.95 395.12,617.55 395.52,617.14 C395.73,616.93 397.94,617.06 400.43,617.44 C403.46,617.89 406.32,619.26 409.14,621.62 C415.53,626.96 418.18,627.99 425.27,627.88 C432.48,627.77 436.59,629.40 440.02,633.73 C442.00,636.23 442.16,637.25 441.60,644.09 C441.14,649.71 441.38,652.83 442.53,656.08 C444.02,660.31 443.97,660.79 441.37,668.63 L 438.66 676.79 L 441.83 686.44 C443.57,691.75 444.99,697.76 444.98,699.80 C444.96,703.57 442.04,711.24 440.19,712.38 C439.62,712.73 437.54,710.43 435.56,707.26 ZM 468.74 676.25 C463.52,665.28 461.31,659.43 455.55,641.32 L 453.26 634.15 L 455.69 635.07 C459.74,636.61 460.67,636.06 457.72,633.86 C456.19,632.72 454.26,630.46 453.41,628.83 C451.64,625.41 447.66,608.00 448.47,607.20 C448.76,606.90 450.05,607.64 451.32,608.83 C455.18,612.45 455.35,611.26 451.63,606.72 C446.89,600.93 446.22,598.83 445.02,585.76 C444.46,579.57 443.79,573.02 443.55,571.22 L 443.11 567.93 L 447.70 571.97 C453.87,577.40 455.07,577.06 450.23,571.25 C443.16,562.76 443.00,562.11 443.00,542.33 L 443.00 524.57 L 448.50 530.00 C454.93,536.35 455.60,535.78 450.13,528.59 C443.83,520.32 443.70,519.86 444.49,508.36 C444.87,502.66 445.53,497.79 445.95,497.53 C446.37,497.27 448.14,498.84 449.89,501.01 C455.50,507.99 457.14,507.51 452.40,500.29 C449.99,496.62 447.77,492.25 447.46,490.56 C447.15,488.88 448.05,481.77 449.45,474.77 C450.85,467.76 452.00,461.80 452.00,461.52 C452.00,460.02 453.76,461.43 455.76,464.51 C459.43,470.17 460.15,468.50 456.96,461.75 C455.33,458.31 454.00,454.90 454.00,454.17 C454.00,452.28 461.31,427.32 465.33,415.50 C469.92,402.01 479.12,378.79 479.66,379.33 C479.90,379.57 478.75,385.33 477.11,392.13 C472.23,412.39 469.15,428.00 466.05,448.31 C461.12,480.50 460.48,489.37 461.93,504.55 L 463.21 517.83 L 460.59 524.37 C458.42,529.80 458.08,531.84 458.62,536.38 C459.10,540.49 458.70,543.92 457.02,550.16 C454.30,560.24 454.69,565.27 459.15,577.61 L 462.30 586.30 L 460.64 593.40 C458.26,603.55 458.52,611.72 461.50,620.59 C463.02,625.13 464.00,630.31 464.00,633.84 C464.00,637.14 465.08,643.26 466.50,648.00 C467.88,652.59 469.00,657.66 469.00,659.27 C469.00,663.00 472.88,682.12 473.91,683.48 C475.23,685.21 475.98,688.00 475.13,688.00 C474.69,688.00 471.81,682.71 468.74,676.25 ZM 542.00 674.14 C531.64,670.08 512.14,654.11 513.29,650.62 C513.49,650.01 514.88,649.36 516.38,649.18 C518.15,648.97 519.42,648.03 520.01,646.48 C521.06,643.70 525.45,640.54 526.95,641.47 C527.53,641.83 528.28,643.90 528.63,646.08 C528.98,648.26 529.61,650.26 530.04,650.52 C530.93,651.07 530.33,644.47 528.92,638.22 C527.86,633.51 528.99,630.00 531.57,630.00 C533.13,630.00 535.94,635.58 539.10,645.00 L 540.95 650.50 L 540.40 646.00 C540.10,643.53 538.77,638.03 537.43,633.80 C534.63,624.93 534.45,622.70 536.40,621.08 C538.14,619.64 540.38,622.55 544.79,632.02 C549.91,643.01 553.20,663.84 551.07,671.75 C549.76,676.59 548.85,676.83 542.00,674.14 ZM 361.13 667.25 C357.52,660.50 357.15,634.88 360.49,622.50 C362.40,615.39 363.39,614.11 365.78,615.66 C367.19,616.57 367.46,618.11 367.28,624.14 C367.16,628.19 366.82,633.19 366.52,635.25 C366.20,637.47 366.39,639.00 366.99,639.00 C367.54,639.00 368.03,637.31 368.08,635.25 C368.19,629.95 370.29,623.56 372.03,623.26 C375.01,622.74 376.00,624.71 376.66,632.51 C377.32,640.26 378.77,640.73 378.93,633.25 C379.02,629.29 380.24,629.18 384.88,632.72 C389.23,636.04 392.91,636.40 395.23,633.73 C396.77,631.96 397.03,631.92 397.59,633.38 C398.58,635.96 390.42,648.72 383.05,656.13 C372.12,667.11 363.42,671.52 361.13,667.25 ZM 503.18 624.01 C497.47,619.88 494.99,614.50 494.00,604.11 C492.96,593.30 492.15,591.22 485.51,582.54 C479.24,574.35 478.00,571.51 478.00,565.40 C478.00,559.15 480.29,554.31 486.00,548.50 C491.89,542.51 494.00,537.84 494.00,530.85 C494.00,518.19 499.19,509.02 508.73,504.80 C515.82,501.66 519.90,502.90 527.58,510.54 C532.94,515.88 534.65,516.97 538.47,517.55 C540.96,517.92 543.00,518.64 543.00,519.15 C543.00,519.65 540.26,526.39 536.92,534.11 C523.09,566.04 514.87,591.15 510.85,613.75 C509.56,621.04 508.23,627.00 507.90,627.00 C507.57,627.00 505.44,625.66 503.18,624.01 ZM 661.00 492.05 C635.37,486.34 615.18,476.20 604.43,463.65 L 600.88 459.50 L 603.41 458.46 C604.81,457.89 607.60,455.49 609.62,453.13 C612.17,450.15 613.86,448.99 615.15,449.33 C616.70,449.74 617.00,449.22 617.00,446.12 C617.00,442.74 617.49,442.10 622.69,438.59 C626.93,435.74 628.79,435.00 629.94,435.72 C631.94,436.95 634.71,442.65 637.61,451.50 C640.98,461.76 640.50,455.53 636.86,441.77 C633.38,428.62 633.63,424.87 638.36,419.37 L 640.65 416.70 L 642.70 419.60 C646.31,424.70 653.19,439.21 656.65,449.00 C659.60,457.36 659.93,457.91 659.42,453.61 C658.66,447.21 652.86,430.67 647.99,420.99 C645.87,416.76 644.23,412.68 644.34,411.90 C644.79,408.97 645.97,408.25 649.23,408.90 C651.76,409.41 653.67,411.11 657.64,416.39 C663.42,424.06 671.33,438.82 675.58,449.88 C679.03,458.86 679.91,457.76 677.02,448.06 C673.35,435.74 667.24,423.56 657.87,409.84 C653.63,403.64 652.92,399.22 655.71,396.43 C657.32,394.82 657.73,395.06 662.87,400.59 C680.80,419.85 692.99,451.06 693.00,477.73 C693.00,486.53 692.86,487.13 690.08,490.23 C687.24,493.41 686.93,493.51 678.33,493.72 C672.57,493.87 666.55,493.28 661.00,492.05 ZM 372.67 468.33 C370.52,466.19 373.09,429.40 377.54,398.33 C379.92,381.71 384.28,359.39 385.35,358.31 C386.59,357.07 398.48,359.42 403.28,361.85 C408.37,364.44 409.55,365.80 416.52,377.20 C417.63,379.01 420.62,381.63 423.18,383.01 C431.83,387.70 436.00,393.54 436.00,400.99 C436.00,407.47 433.71,411.45 426.98,416.68 C419.12,422.78 418.00,424.94 418.70,432.64 C419.40,440.34 418.30,442.32 411.58,445.50 C406.75,447.79 405.99,448.60 403.95,453.64 C401.07,460.72 397.35,463.34 391.26,462.58 C386.36,461.96 382.92,463.05 378.78,466.53 C375.84,469.01 373.91,469.58 372.67,468.33 ZM 571.00 440.53 C562.24,438.18 557.36,434.58 553.99,427.98 C552.27,424.61 552.02,422.42 552.24,412.72 C552.50,401.44 552.48,401.36 549.26,396.44 C542.79,386.57 541.02,381.96 541.02,375.00 C541.02,363.43 546.29,355.61 559.11,348.16 C564.15,345.23 566.18,343.30 568.72,338.98 C570.49,335.96 572.30,332.88 572.75,332.13 C573.39,331.04 574.19,331.29 576.65,333.36 C584.83,340.24 597.14,342.24 606.32,338.18 C608.89,337.04 611.00,336.28 611.00,336.49 C611.00,338.71 599.60,378.48 595.09,392.00 C588.01,413.21 578.19,439.09 576.63,440.62 C575.80,441.44 574.32,441.42 571.00,440.53 ZM 304.36 400.49 C285.73,397.22 263.34,388.24 259.95,382.69 C257.29,378.32 257.50,375.73 261.05,369.05 C270.01,352.25 291.23,332.45 310.93,322.52 C315.95,319.99 333.23,313.00 334.46,313.00 C334.76,313.00 335.00,315.14 334.99,317.75 L 334.98 322.50 L 324.13 327.74 C311.55,333.82 298.62,342.70 291.50,350.16 C288.75,353.04 287.17,354.92 288.00,354.33 C288.83,353.75 293.33,350.45 298.00,347.01 C304.86,341.96 332.70,327.00 335.25,327.00 C335.94,327.00 335.66,328.70 334.15,333.67 C333.62,335.42 333.39,337.06 333.64,337.31 C333.90,337.56 332.39,338.81 330.30,340.08 C321.94,345.15 300.00,365.01 300.00,367.50 C300.00,367.88 303.26,365.30 307.25,361.78 C315.54,354.47 322.49,349.34 329.07,345.68 L 333.65 343.13 L 335.32 345.97 C338.94,352.09 337.90,354.59 327.01,365.94 C321.51,371.67 317.22,376.55 317.47,376.80 C317.72,377.05 320.97,374.44 324.71,371.01 C334.70,361.83 339.75,358.55 341.55,360.04 C342.35,360.70 343.01,361.98 343.02,362.87 C343.03,363.77 343.93,366.46 345.02,368.85 L 346.99 373.20 L 344.86 376.20 L 342.72 379.21 L 345.36 384.10 C346.81,386.78 348.00,389.63 348.00,390.42 C348.00,391.21 349.12,392.74 350.49,393.81 C352.40,395.31 352.69,396.01 351.74,396.79 C346.66,400.98 319.31,403.11 304.36,400.49 ZM 613.22 240.74 C609.10,236.35 606.66,229.05 606.63,221.00 C606.56,205.64 612.99,197.09 618.93,204.63 C621.34,207.70 621.55,209.00 619.63,209.00 C616.66,209.00 616.72,220.11 619.73,227.25 C621.37,231.16 622.75,231.85 624.82,229.78 C627.09,227.51 623.24,238.11 620.89,240.62 C618.09,243.60 615.94,243.63 613.22,240.74 ZM 461.87 194.87 C459.60,192.60 459.64,188.46 461.97,182.50 C463.07,179.70 463.24,179.62 464.49,181.32 C465.71,182.99 466.06,183.02 468.74,181.64 C471.88,180.01 478.08,173.58 480.04,169.92 C481.05,168.03 480.97,167.45 479.54,166.41 C477.96,165.25 477.99,165.08 479.96,164.02 C481.12,163.40 483.97,163.03 486.29,163.19 C490.43,163.49 490.50,163.57 490.79,167.50 C491.30,174.47 481.25,188.72 472.72,193.12 C465.26,196.97 464.15,197.15 461.87,194.87 ZM 593.50 144.47 C583.13,135.25 568.46,129.46 552.00,128.11 L 543.50 127.41 L 549.50 126.08 C564.41,122.78 579.71,127.61 591.14,139.23 C596.09,144.25 599.91,149.11 598.79,148.96 C598.63,148.94 596.25,146.92 593.50,144.47 Z" fill="rgb(252,251,251)"/>
</g>
</svg>