<svg width="794" height="100" viewBox="0 0 794 100" fill="none" xmlns="http://www.w3.org/2000/svg">
<path fill-rule="evenodd" clip-rule="evenodd" d="M646.623 5.07153C639.794 1.72671 632.242 0.375 624.641 0.393018H599.586V76.6373H624.641C632.237 76.625 639.784 75.3224 646.623 72.0082C652.247 69.0885 656.783 64.4406 659.562 58.7497C662.324 52.3798 663.749 45.5114 663.749 38.5695C663.749 31.6276 662.324 24.7595 659.562 18.3895C656.772 12.6919 652.241 8.02802 646.623 5.07153ZM612.614 11.602H624.21C629.604 11.6246 634.975 12.456 639.82 14.8398C643.507 16.8948 646.383 20.1448 647.971 24.0533C649.762 28.6963 650.501 33.6446 650.514 38.619C650.501 43.5615 649.772 48.4788 647.976 53.0856C646.367 56.9397 643.492 60.1316 639.824 62.136C634.968 64.4875 629.6 65.3125 624.21 65.3294H612.614V11.602ZM675.353 0.378036H674.486V76.6225H723.634V65.7304H687.514V43.4512H720.438V32.7573H687.514V11.2701H723.634V0.378036H675.353ZM769.705 38.6191L792.857 75.3105L793.719 76.6374H778.778L778.521 76.2313L761.593 49.3429L745.904 76.2068L745.651 76.6374H730.928L731.731 75.3205L754.447 38.0945L731.503 1.71998L730.665 0.393105H745.606L745.864 0.799085L762.688 27.4847L778.377 0.823863L778.63 0.397939H793.362L792.545 1.71998L769.705 38.6191Z" fill="url(#paint0_linear_15_15668)"/>
<path fill-rule="evenodd" clip-rule="evenodd" d="M557.838 11.2583V0H560.286L563.879 7.14416L567.422 0H569.87V11.2583H567.808V3.49049L564.672 9.65437H563.046L559.909 3.49049V11.2583H557.838ZM550.943 11.2628V1.67795H547.657V0.0244141H556.305V1.67795H553.004V11.2828L550.943 11.2628ZM485.163 0.00610352C486.441 0.00610352 487.672 0.484407 488.614 1.34688C489.073 1.77065 489.435 2.28812 489.676 2.86383C489.917 3.43954 490.031 4.06011 490.012 4.68386C490.028 5.32408 489.916 5.9613 489.681 6.55708C489.445 7.15286 489.092 7.69515 488.643 8.15169C488.193 8.60822 487.656 8.96952 487.064 9.21416C486.472 9.45879 485.836 9.58177 485.195 9.57557C484.553 9.59991 483.912 9.48984 483.315 9.25284C482.718 9.01584 482.177 8.65705 481.726 8.19913C481.271 7.73686 480.916 7.18663 480.681 6.58216C480.447 5.97769 480.339 5.33163 480.363 4.68386C480.343 4.06459 480.453 3.44806 480.685 2.8735C480.917 2.29893 481.267 1.7789 481.711 1.34688C482.653 0.484407 483.885 0.00610352 485.163 0.00610352ZM482.093 75.7891V24.4827H488.272V75.7891H482.093ZM230.97 75.9321V0.994873H243.854V75.9321H230.97ZM143.063 75.9267C139.063 75.9375 135.088 75.2716 131.383 73.7631C128.234 72.4797 125.462 70.4206 123.326 67.7775C121.311 65.2247 120.056 62.1569 119.703 58.9251H132.691C133.132 60.9303 134.297 62.7032 135.962 63.9057C137.964 65.3489 140.394 65.9375 142.86 65.9653C145.063 65.9375 147.259 65.5459 149.054 64.2574C149.657 63.793 150.147 63.1996 150.49 62.5211C150.833 61.8426 151.02 61.0962 151.037 60.3363C151.106 59.3998 150.869 58.4659 150.36 57.6762C149.851 56.8866 149.099 56.284 148.217 55.9595C145.665 54.9928 143.038 54.2362 140.363 53.6971C138.212 53.2284 136.03 52.6589 133.816 51.9889C131.698 51.3607 129.655 50.5006 127.726 49.4243C125.951 48.4404 124.426 47.0635 123.266 45.3992C122.076 43.5979 121.477 41.4714 121.552 39.3145C121.53 37.1752 121.995 35.059 122.911 33.1252C123.827 31.1914 125.17 29.4904 126.839 28.1501C131.084 24.8954 136.365 23.625 141.705 23.625C146.752 23.625 151.739 24.8179 155.853 27.7491C157.61 29.1314 159.072 30.851 160.153 32.8067C161.234 34.7624 161.912 36.9145 162.147 39.1362H149.961C149.221 35.4494 146.435 33.625 141.601 33.6012C139.637 33.625 137.684 33.9705 136.012 35.0072C135.412 35.3805 134.916 35.8987 134.57 36.5139C134.223 37.1291 134.037 37.8215 134.029 38.5273C134.029 40.006 135.002 41.1812 136.948 42.0526C139.451 43.1012 142.048 43.91 144.704 44.4685C148.192 45.2738 151.398 46.1615 154.322 47.1319C156.988 47.9485 159.399 49.4391 161.319 51.4591C163.198 53.7629 164.133 56.6927 163.936 59.6579C164.035 62.626 163.188 65.5489 161.517 68.0051C159.704 70.5985 157.19 72.6231 154.268 73.8423C150.722 75.3195 146.903 75.9375 143.063 75.9267ZM183.523 72.6068C187.497 74.8505 191.997 75.9972 196.561 75.929C201.111 75.9859 205.596 74.8397 209.56 72.6068C213.412 70.4346 216.598 67.2521 218.772 63.403C220.987 59.2008 222.145 54.5227 222.145 49.7731C222.145 45.0236 220.987 40.3455 218.772 36.1433C216.606 32.3045 213.44 29.1238 209.609 26.9395C205.626 24.7619 201.159 23.6206 196.618 23.6206C192.078 23.6206 187.611 24.7619 183.627 26.9395C179.79 29.1315 176.609 32.3093 174.415 36.1433C172.073 40.2983 170.89 45.0055 170.991 49.7731C170.889 54.5342 172.051 59.2372 174.361 63.403C176.526 67.2424 179.692 70.4232 183.523 72.6068ZM201.337 63.7895C199.829 64.4388 198.203 64.7693 196.561 64.7598C194.927 64.7701 193.308 64.4442 191.809 63.7937C190.31 63.1433 188.963 62.1874 187.855 60.9871C185.466 57.7342 184.178 53.805 184.178 49.7707C184.178 45.7364 185.466 41.8072 187.855 38.5544C188.975 37.3631 190.329 36.4136 191.831 35.7647C193.333 35.1157 194.952 34.781 196.589 34.781C198.225 34.781 199.844 35.1157 201.346 35.7647C202.849 36.4136 204.202 37.3631 205.323 38.5544C207.742 41.7944 209.049 45.7285 209.049 49.7707C209.049 53.8129 207.742 57.747 205.323 60.9871C204.202 62.1861 202.845 63.1402 201.337 63.7895ZM265.303 72.6068C269.277 74.8505 273.777 75.9972 278.341 75.929C282.89 75.985 287.372 74.8388 291.334 72.6068C295.186 70.4334 298.371 67.2511 300.547 63.403C302.762 59.2008 303.92 54.5227 303.92 49.7731C303.92 45.0236 302.762 40.3455 300.547 36.1433C298.381 32.3047 295.214 29.124 291.384 26.9395C287.401 24.7619 282.934 23.6206 278.393 23.6206C273.853 23.6206 269.385 24.7619 265.402 26.9395C261.565 29.1315 258.384 32.3093 256.19 36.1433C253.848 40.2984 252.666 45.0055 252.766 49.7731C252.664 54.5347 253.829 59.238 256.141 63.403C258.305 67.2428 261.472 70.4238 265.303 72.6068ZM283.117 63.7895C281.609 64.4388 279.983 64.7693 278.341 64.7598C276.707 64.7701 275.088 64.4442 273.589 63.7937C272.09 63.1433 270.743 62.1874 269.634 60.9871C267.247 57.7339 265.959 53.8049 265.959 49.7707C265.959 45.7366 267.247 41.8075 269.634 38.5544C270.755 37.3631 272.108 36.4136 273.611 35.7647C275.113 35.1157 276.732 34.781 278.368 34.781C280.005 34.781 281.624 35.1157 283.126 35.7647C284.628 36.4136 285.982 37.3631 287.103 38.5544C289.521 41.7948 290.827 45.7287 290.827 49.7707C290.827 53.8127 289.521 57.7467 287.103 60.9871C285.982 62.1861 284.625 63.1402 283.117 63.7895ZM361.714 24.1964H343.136L342.908 24.1173C340.338 23.2766 337.648 22.8649 334.944 22.8992C331.171 22.7825 327.427 23.5954 324.042 25.2659C321.265 26.6916 318.952 28.8777 317.372 31.5684C315.831 34.2834 315.041 37.3592 315.083 40.4801C314.983 42.9758 315.46 45.4606 316.478 47.7421C317.496 50.0235 319.026 52.0399 320.95 53.6346L322.159 54.6596L312.248 64.4227V65.6853C313.009 66.3997 313.826 67.0519 314.691 67.6358C315.884 68.4241 317.154 69.0879 318.482 69.6163L320.93 70.6063L318.77 72.1362C316.418 73.6449 314.498 75.736 313.195 78.2061C312.276 80.0561 311.769 82.083 311.708 84.1473C311.57 87.3042 312.564 90.4064 314.513 92.8954C316.658 95.3822 319.466 97.2092 322.61 98.1634C326.615 99.4312 330.798 100.045 334.999 99.9804C339.404 100.149 343.788 99.2788 347.794 97.4405C350.744 96.03 353.24 93.8225 354.999 91.0685C356.508 88.6311 357.314 85.8247 357.328 82.9588C357.407 81.0972 357.074 79.2412 356.353 77.5229C355.631 75.8046 354.54 74.2662 353.156 73.0174C348.912 69.9612 343.798 68.3489 338.567 68.4182H338.542C334.488 68.0568 331.297 67.71 329.052 67.3832C327.228 67.1561 325.426 66.7753 323.666 66.2446C322.464 65.8662 321.327 65.3051 320.296 64.5811L318.879 63.5513L326.183 56.6942L326.996 56.9468C329.553 57.7197 332.213 58.0986 334.885 58.0706C338.633 58.1894 342.352 57.3763 345.708 55.7042C348.477 54.2567 350.789 52.0697 352.388 49.3868C353.957 46.6919 354.767 43.6226 354.732 40.5048C354.792 37.0671 353.786 33.6948 351.852 30.8505L350.366 28.6869L361.654 28.1919L361.714 24.1964ZM325.717 71.9135L326.143 71.6857L326.639 71.76C329.478 72.1858 332.893 72.547 336.788 72.8243C340.805 72.6788 344.76 73.8528 348.047 76.1664C349.076 77.0351 349.904 78.1174 350.473 79.3384C351.041 80.5594 351.336 81.8897 351.337 83.2362C351.372 84.9984 350.963 86.7409 350.15 88.3047C349.336 89.8685 348.142 91.2035 346.679 92.1874C343.244 94.4478 339.182 95.5656 335.073 95.3809C330.864 95.5194 326.693 94.5388 322.987 92.5392C321.328 91.6348 319.956 90.2846 319.026 88.6413C318.096 86.9981 317.645 85.1272 317.724 83.2411C317.803 81.286 318.339 79.3768 319.29 77.6664C320.8 75.1427 323.041 73.1366 325.717 71.9135ZM345.044 50.1293C342.205 52.445 338.61 53.6318 334.949 53.4614C331.255 53.6436 327.624 52.457 324.751 50.1293C323.425 48.9045 322.386 47.4014 321.711 45.7277C321.036 44.0541 320.74 42.2515 320.846 40.4501C320.748 38.6657 321.047 36.8819 321.722 35.2269C322.398 33.572 323.432 32.0874 324.751 30.8801C327.625 28.5546 331.256 27.37 334.949 27.5531C338.609 27.3813 342.204 28.5661 345.044 30.8801C346.361 32.0883 347.394 33.5731 348.068 35.2279C348.743 36.8826 349.042 38.6662 348.944 40.4501C349.05 42.2531 348.755 44.0575 348.08 45.7329C347.405 47.4083 346.366 48.9132 345.039 50.1393L345.044 50.1293ZM403.128 26.5357C406.537 28.6079 409.323 31.5621 411.19 35.0859C413.058 38.6204 414.025 42.5605 414.005 46.5573C414.005 47.2901 413.985 48.0574 413.955 48.8297C413.911 49.2258 413.911 49.6517 413.911 50.1122H371.705L371.789 51.6418C371.872 55.428 372.919 59.1309 374.832 62.4003C376.449 65.0764 378.735 67.2868 381.464 68.8159C384.193 70.3451 387.273 71.125 390.402 71.1237C393.977 71.125 397.501 70.2571 400.501 68.3116C402.941 66.6456 404.873 64.3375 406.081 61.6428H411.953C410.346 65.9909 407.386 69.7102 403.509 72.2557C399.631 74.8011 395.04 75.8125 390.407 75.7876C385.957 75.8125 381.569 74.74 377.711 72.5249C374.035 70.3511 371.03 67.2078 369.024 63.4399C366.815 59.1449 365.813 54.3648 365.843 49.5377C365.813 44.7298 366.812 39.9691 368.979 35.6752C370.951 31.8787 373.957 28.7172 377.651 26.5557C381.603 24.3244 386.082 23.3125 390.62 23.2927C395.011 23.3125 399.346 24.3033 403.128 26.5357ZM371.903 44.4877L371.745 46.0868H408.133L408.063 44.572C408.059 42.2749 407.578 40.0036 406.65 37.9019C405.722 35.8003 404.368 33.9142 402.672 32.363C399.281 29.4089 394.904 27.9375 390.407 27.9517C385.963 27.9375 381.638 29.3889 378.157 32.1499C376.313 33.6588 374.805 35.5355 373.728 37.6599C372.651 39.7843 372.029 42.1097 371.903 44.4877ZM464.214 28.2402C462.346 26.4291 460.125 25.0204 457.69 24.1015C455.255 23.1826 452.657 22.875 450.057 22.8979C446.447 22.875 442.891 23.7783 439.779 25.6061C436.984 27.1356 434.574 29.2809 432.732 31.879L430.046 35.4239L430.24 24.1901H424.293V75.3233H430.443V48.5585C430.439 43.0179 431.869 37.5529 435.398 33.2651C436.974 31.4951 438.916 30.0873 441.089 29.1386C443.262 28.1899 445.614 27.75 447.985 27.7697C450.134 27.75 452.288 27.9771 454.281 28.7941C456.273 29.6111 458.053 30.873 459.482 32.4831C462.265 36.4053 463.251 41.1681 463.273 45.9643V75.3233H469.452V44.994C469.439 38.9403 468.082 32.9276 464.214 28.2402ZM541.333 60.8129C540.45 63.9491 538.445 66.652 535.698 68.4076C532.524 70.4232 528.824 71.375 525.064 71.3781C521.803 71.375 518.601 70.5116 515.792 68.8582C512.806 67.0802 510.371 64.5095 508.76 61.4318C507.004 57.6988 506.094 53.6246 506.094 49.4999C506.094 45.3752 507.004 41.3013 508.76 37.5683C510.308 34.5901 512.649 32.0965 515.525 30.3625C518.401 28.6284 521.7 27.75 525.059 27.7408C528.819 27.75 532.519 28.6948 535.693 30.7112C538.415 32.4417 540.415 35.1025 541.318 38.1971H547.641C546.453 33.9306 543.889 30.175 540.346 27.5129C535.948 24.3119 530.607 22.8125 525.168 22.8394C520.597 22.8125 516.089 23.9156 512.105 26.1564C508.282 28.3547 505.14 31.5653 503.027 35.4343C500.837 39.7913 499.696 44.5998 499.696 49.4754C499.696 54.3511 500.837 59.1592 503.027 63.5162C505.139 67.3857 508.281 70.5964 512.105 72.7941C516.089 75.0338 520.597 76.125 525.168 76.1111C530.635 76.125 536 74.5971 540.391 71.3385C543.904 68.6996 546.454 64.9834 547.651 60.7585L541.333 60.8129Z" fill="#EEEEEE"/>
<ellipse cx="50" cy="50.0005" rx="50" ry="50" fill="#EEEEEE"/>
<path d="M48.7642 76.563C54.3742 76.563 59.9007 75.1742 64.4714 71.9198C66.4623 70.4629 68.1455 68.5973 69.3738 66.4592C70.6022 64.3211 71.3625 61.9435 71.613 59.4934L60.7775 59.4538C60.193 61.8161 58.8328 63.9168 56.9078 65.4111C54.6137 67.1624 51.7746 67.8854 48.8938 67.8854C46.3536 67.8854 43.8353 67.3492 41.8093 65.8022C41.1237 65.2265 40.5722 64.5035 40.1876 63.6883C39.8031 62.873 39.6031 61.9897 39.6031 61.0953C39.6031 60.0054 39.7481 58.9133 40.3063 57.9684C40.8644 57.0235 41.706 56.2829 42.7081 55.8457C45.4702 54.725 48.3379 53.8987 51.2714 53.3735C54.1479 52.7671 56.9782 51.9606 59.7359 50.9586C62.3619 50.0576 64.7636 48.5832 66.7479 46.6384C67.7082 45.6254 68.4487 44.43 68.9322 43.1269C69.4134 41.8239 69.5562 40.4307 69.5584 39.0397C69.5584 36.9346 69.1695 34.8404 68.3037 32.9199C67.4379 30.9993 66.148 29.2963 64.5417 27.9361C60.5314 24.7499 55.4861 23.438 50.3683 23.438C45.4966 23.438 40.6842 24.6224 36.7289 27.4747C34.9687 28.87 33.514 30.6214 32.4505 32.5991C31.3891 34.5811 30.7431 36.761 30.5541 38.9958L40.882 39.0353C41.0116 38.0267 41.3479 37.0489 41.8642 36.1809C42.3828 35.3019 43.075 34.5438 43.8925 33.9439C45.8482 32.6386 48.1753 32.131 50.5243 32.131C52.7503 32.131 54.9543 32.6013 56.8046 33.8406C57.5033 34.3328 58.0637 34.9789 58.4438 35.7392C58.8306 36.4973 59.0108 37.3367 59.0086 38.1849C59.0086 39.1144 58.6504 40.0044 58.1032 40.7471C57.5495 41.4921 56.7738 41.9623 55.9124 42.36C53.3041 43.5642 50.5661 44.4806 47.7556 45.087C44.5891 45.777 41.4489 46.634 38.3747 47.6668C35.7312 48.4997 33.3404 49.9807 31.4199 51.9738C29.4949 54.3228 28.75 57.3135 28.75 60.3416C28.75 62.5456 29.1104 64.7364 30.0267 66.7427C30.943 68.7489 32.312 70.5157 34.0282 71.9001C38.2253 75.183 43.453 76.563 48.7642 76.563Z" fill="#121212"/>
<defs>
<linearGradient id="paint0_linear_15_15668" x1="793.719" y1="38.5077" x2="599.586" y2="38.5077" gradientUnits="userSpaceOnUse">
<stop stop-color="#D81D3C"/>
<stop offset="0.495181" stop-color="#981329"/>
<stop offset="1" stop-color="#D81D3C"/>
</linearGradient>
</defs>
</svg>
